<svg width="381" height="205" viewBox="0 0 381 205" fill="none" xmlns="http://www.w3.org/2000/svg">
<g clip-path="url(#clip0_54_90)">
<g clip-path="url(#clip1_54_90)">
<path d="M233.663 79.1319V82.038C233.663 88.3955 228.509 93.5494 222.151 93.5494H189.535H156.92C150.562 93.5494 145.408 88.3955 145.408 82.038V79.1319C145.408 76.0789 146.621 73.1509 148.78 70.9919L174.187 45.585V18.3961C171.952 17.6058 170.35 15.4751 170.35 12.9692V11.0506C170.35 7.87176 172.927 5.29492 176.105 5.29492H189.535H202.965C206.144 5.29492 208.721 7.87176 208.721 11.0506V12.9692C208.721 15.4751 207.119 17.6058 204.884 18.3961V45.585L230.291 70.9919C232.45 73.1507 233.663 76.0787 233.663 79.1319Z" fill="#C9C9C9"/>
<path d="M189.536 62.8516C185.485 62.8516 182.374 59.7767 182.947 56.3398L183.78 51.3402L185.698 26.3987V22.5615H193.373V26.3987L195.291 51.3402L196.125 56.3398C196.697 59.7767 193.586 62.8516 189.536 62.8516Z" fill="#D6D6D6"/>
<path d="M227.335 80.5126V80.8807C227.335 83.6038 225.128 85.8111 222.405 85.8111H189.536H156.666C153.943 85.8111 151.736 83.6038 151.736 80.8807V80.5126C151.736 79.2049 152.255 77.9509 153.18 77.0263L177.951 52.4538C178.67 51.7408 179.641 51.3408 180.653 51.3408H189.536H198.418C199.43 51.3408 200.401 51.7408 201.12 52.4538L225.891 77.0263C226.816 77.9509 227.335 79.2049 227.335 80.5126Z" fill="#FF4400"/>
<path d="M204.884 18.7246V26.3989H174.187V18.7246H181.861H197.21H204.884Z" fill="#BABABA"/>
<path d="M181.861 45.585L170.35 93.5494H156.92C150.562 93.5494 145.408 88.3955 145.408 82.038V79.1319C145.408 76.0789 146.621 73.1509 148.78 70.9919L174.187 45.585V18.3961C171.952 17.6058 170.35 15.4751 170.35 12.9692V11.0506C170.35 7.87176 172.927 5.29492 176.105 5.29492H181.861V45.585Z" fill="#B7B7B7"/>
<path d="M181.861 26.3989L174.187 18.7246H181.861V26.3989Z" fill="#A3A3A3"/>
<path d="M233.663 79.1319V82.038C233.663 88.3955 228.509 93.5494 222.151 93.5494H208.721L197.21 45.585V5.29492H202.966C206.145 5.29492 208.721 7.87176 208.721 11.0506V12.9692C208.721 15.4751 207.119 17.6058 204.884 18.3961V45.585L230.291 70.9919C232.45 73.1507 233.663 76.0787 233.663 79.1319Z" fill="#A0A0A0"/>
<path d="M197.21 18.7246H204.884L197.21 26.3989V18.7246Z" fill="#919191"/>
<path d="M163.6 66.6895H215.471L225.891 77.0264C226.816 77.9509 227.335 79.2051 227.335 80.5126V80.8808C227.335 83.6038 225.128 85.8111 222.405 85.8111H189.536H156.666C153.943 85.8111 151.736 83.6038 151.736 80.8808V80.5126C151.736 79.2049 152.255 77.9509 153.18 77.0264L163.6 66.6895Z" fill="#FF4400"/>
<path d="M176.796 66.6895L172.207 85.8113H156.666C153.943 85.8113 151.736 83.604 151.736 80.881V80.5128C151.736 79.2051 152.255 77.9511 153.18 77.0265L163.6 66.6895H176.796Z" fill="#FF4400"/>
<path d="M227.335 80.5126V80.8808C227.335 83.6038 225.128 85.8111 222.405 85.8111H206.864L202.275 66.6895H215.471L225.891 77.0264C226.816 77.9509 227.335 79.2049 227.335 80.5126Z" fill="#FF4400"/>
<path d="M217.405 68.608H202.735H189.535H176.336H161.666L177.951 52.4538C178.669 51.7408 179.641 51.3408 180.653 51.3408H183.78L182.946 56.3404C182.374 59.7774 185.485 62.8523 189.535 62.8523C193.586 62.8523 196.697 59.7774 196.124 56.3404L195.291 51.3408H198.418C199.43 51.3408 200.401 51.7408 201.12 52.4538L217.405 68.608Z" fill="#FF5E24"/>
<path d="M180.477 51.3495L176.335 68.608H161.666L177.951 52.4538C178.669 51.7408 179.641 51.3408 180.653 51.3408C180.594 51.3408 180.536 51.3468 180.477 51.3495Z" fill="#E53D00"/>
<path d="M217.405 68.608H202.735L198.593 51.3495C198.535 51.3468 198.477 51.3408 198.418 51.3408C199.43 51.3408 200.402 51.7408 201.12 52.4538L217.405 68.608Z" fill="#E53D00"/>
</g>
<path d="M145.408 77.443L146.732 73.4715L174.312 45.4507V18.5331L172.988 17.8712L172.105 17.2093L170.781 15.4442L170.34 13.6791V10.3696L171.002 8.16319L172.546 6.3981L174.091 5.51556L175.529 5.29492H194.61H202.994L204.539 5.51556L206.524 6.61874L208.29 8.38383L208.731 10.5902V13.8997L208.29 15.4442L206.966 17.2093L204.98 18.7537L204.759 45.4507L227.044 67.5143L231.456 71.9271L232.339 73.9128L233.221 75.6779L233.663 78.1049L233.442 84.724L231.898 88.4748L229.25 91.343L225.058 93.3288L222.41 93.77H155.999L154.013 93.3288L151.365 92.2256L148.276 89.7986L146.291 86.7097L145.408 83.8414V77.443Z" stroke="black" stroke-width="8.82545"/>
</g>
<mask id="path-16-outside-1_54_90" maskUnits="userSpaceOnUse" x="1" y="114.642" width="380" height="91" fill="black">
<rect fill="white" x="1" y="114.642" width="380" height="91"/>
<path d="M33.4383 180.404C25.447 180.404 19.3726 178.095 15.2152 173.475C11.0579 168.81 8.97921 162.435 8.97921 154.352C8.97921 148.901 10.0878 144.166 12.3051 140.147C14.5224 136.082 17.5711 132.987 21.4513 130.862C25.3315 128.691 29.7198 127.606 34.6162 127.606C36.5563 127.606 38.4272 127.721 40.2287 127.952C42.0302 128.137 44.2013 128.414 46.7419 128.784C48.7282 129.107 50.0909 129.292 50.8299 129.338L49.9985 144.79H42.5845L40.2287 134.188C39.2124 133.08 37.0876 132.525 33.8541 132.525C30.2972 132.525 27.4795 134.304 25.4008 137.861C23.3683 141.371 22.352 146.545 22.352 153.381C22.352 160.033 23.3452 165.368 25.3315 169.387C27.364 173.406 30.2972 175.415 34.1312 175.415C36.0251 175.415 37.4571 175.231 38.4272 174.861C39.4434 174.492 40.298 173.96 40.9909 173.267L44.1089 165.854L50.8992 166.477L49.652 177.771C48.3124 177.864 46.6726 178.21 44.7325 178.811C42.8848 179.319 41.1294 179.711 39.4665 179.989C37.8497 180.266 35.8404 180.404 33.4383 180.404ZM59.0829 129.615L54.1634 128.714V124.488L68.0905 122.825H68.2984L70.3078 124.28L70.3771 139.316L69.8228 145.482C71.2548 144.143 73.1487 142.965 75.5045 141.949C77.8603 140.886 80.4471 140.355 83.2649 140.355C86.1751 140.355 88.4385 140.886 90.0553 141.949C91.672 143.011 92.8037 144.628 93.4504 146.799C94.0971 148.97 94.4205 151.857 94.4205 155.46V174.445L98.6471 175.069V179.642H79.3847V175.069L83.057 174.445V155.529C83.057 152.296 82.7106 150.056 82.0177 148.808C81.3248 147.515 79.9159 146.868 77.791 146.868C76.4976 146.868 75.2042 147.169 73.9108 147.769C72.6174 148.323 71.5319 149.016 70.6543 149.848V174.445L74.4652 175.069V179.642H55.4799V175.069L59.0829 174.445V129.615ZM120.734 180.404C114.405 180.404 109.717 178.626 106.668 175.069C103.619 171.466 102.095 166.57 102.095 160.38C102.095 156.176 102.88 152.55 104.451 149.501C106.021 146.453 108.215 144.143 111.033 142.572C113.897 140.956 117.246 140.147 121.08 140.147C125.93 140.147 129.626 141.371 132.166 143.82C134.753 146.268 136.093 149.732 136.185 154.213C136.185 157.169 135.977 159.548 135.562 161.35H113.874C114.105 165.276 115.052 168.279 116.715 170.357C118.424 172.39 120.803 173.406 123.852 173.406C125.561 173.406 127.339 173.129 129.187 172.575C131.081 171.974 132.605 171.304 133.76 170.565L135.7 174.792C134.499 176.131 132.444 177.402 129.533 178.603C126.669 179.804 123.736 180.404 120.734 180.404ZM125.168 156.777L125.237 153.866C125.237 150.956 124.845 148.739 124.06 147.215C123.274 145.69 121.935 144.928 120.041 144.928C118.101 144.928 116.599 145.783 115.537 147.492C114.474 149.155 113.897 152.25 113.805 156.777H125.168ZM141.431 175.069L145.103 174.445V148.393L141.015 147.145V141.741L153.626 140.216L154.18 140.494L155.566 142.434V145.898C157.044 144.374 159.215 143.08 162.079 142.018C164.943 140.909 167.391 140.355 169.424 140.355C171.918 140.355 173.928 140.771 175.452 141.602C177.023 142.434 178.201 143.727 178.986 145.482C180.556 144.004 182.52 142.78 184.875 141.81C187.277 140.84 189.703 140.355 192.151 140.355C196.216 140.355 199.126 141.533 200.881 143.889C202.683 146.245 203.584 150.102 203.584 155.46V174.445L207.741 175.069V179.642H188.964V175.069L192.082 174.445V155.737C192.082 152.411 191.689 150.102 190.904 148.808C190.165 147.515 188.779 146.868 186.746 146.868C184.621 146.868 182.404 147.769 180.095 149.571C180.372 151.28 180.51 153.243 180.51 155.46V174.445L184.39 175.069V179.642H165.474V175.069L168.939 174.445V155.529C168.939 152.25 168.569 149.986 167.83 148.739C167.137 147.492 165.798 146.868 163.812 146.868C162.518 146.868 161.225 147.169 159.931 147.769C158.684 148.323 157.599 149.016 156.675 149.848V174.445L160.416 175.069V179.642H141.431V175.069ZM220.657 135.158C218.856 135.158 217.401 134.627 216.292 133.565C215.184 132.502 214.629 131.14 214.629 129.477C214.629 127.537 215.23 125.943 216.431 124.696C217.678 123.448 219.341 122.825 221.42 122.825C223.498 122.825 225.092 123.356 226.201 124.419C227.309 125.481 227.864 126.844 227.864 128.507C227.864 130.493 227.24 132.11 225.993 133.357C224.746 134.558 222.99 135.158 220.727 135.158H220.657ZM216.431 148.393L211.788 147.076V141.879L225.646 140.216H225.785L227.933 141.672V174.445L232.09 175.069V179.642H212.135V175.069L216.431 174.445V148.393ZM245.563 173.891C245.886 174.399 246.626 174.861 247.78 175.277C248.981 175.693 250.182 175.9 251.383 175.9C253.277 175.9 254.709 175.508 255.679 174.723C256.696 173.891 257.204 172.829 257.204 171.535C257.204 170.149 256.557 169.018 255.264 168.14C253.97 167.216 251.845 166.108 248.889 164.814L246.256 163.636C243.253 162.297 240.99 160.68 239.466 158.786C237.988 156.846 237.248 154.398 237.248 151.441C237.248 149.316 237.872 147.423 239.119 145.76C240.366 144.05 242.168 142.711 244.524 141.741C246.88 140.771 249.651 140.286 252.839 140.286C255.056 140.286 256.973 140.424 258.59 140.702C260.206 140.979 261.846 141.325 263.509 141.741C264.618 142.064 265.449 142.249 266.003 142.295V151.719H259.837L258.035 146.383C257.804 145.967 257.25 145.598 256.372 145.275C255.495 144.905 254.501 144.72 253.393 144.72C251.637 144.72 250.252 145.113 249.235 145.898C248.219 146.637 247.711 147.654 247.711 148.947C247.711 150.425 248.289 151.603 249.443 152.481C250.598 153.312 252.446 154.305 254.986 155.46L256.442 156.084C260.183 157.654 263.116 159.363 265.241 161.211C267.366 163.013 268.429 165.507 268.429 168.694C268.429 172.113 267.066 174.93 264.341 177.148C261.615 179.319 257.596 180.404 252.284 180.404C249.836 180.404 247.665 180.196 245.771 179.781C243.877 179.411 241.798 178.903 239.535 178.256L237.248 177.633V168.417H243.831L245.563 173.891ZM285.219 180.266C282.17 180.266 279.907 179.573 278.428 178.187C276.996 176.755 276.28 174.561 276.28 171.605V146.938H272.054V142.919L273.44 142.364C274.548 141.995 275.518 141.602 276.35 141.187C277.274 140.309 278.013 139.154 278.567 137.722C279.26 136.059 280.022 133.726 280.854 130.724H287.297L287.713 141.117H297.622V146.938H287.852V165.299C287.852 167.84 287.921 169.618 288.06 170.634C288.198 171.651 288.452 172.321 288.822 172.644C289.238 172.921 289.977 173.06 291.039 173.06C293.21 173.06 295.266 172.69 297.206 171.951L298.661 176.316C297.368 177.379 295.451 178.302 292.91 179.088C290.369 179.873 287.806 180.266 285.219 180.266ZM301.862 175.069L306.089 174.445V148.393L302.001 147.145V141.741L313.503 140.216H313.711L315.651 141.672V143.335L315.443 149.086H315.651C315.974 148.023 316.713 146.799 317.868 145.413C319.023 143.981 320.478 142.757 322.233 141.741C324.035 140.678 325.975 140.147 328.054 140.147C329.255 140.147 330.179 140.309 330.825 140.632V152.689C330.086 152.134 329.278 151.695 328.4 151.372C327.569 151.049 326.483 150.887 325.144 150.887C323.481 150.887 321.979 151.118 320.64 151.58C319.3 151.996 318.238 152.481 317.452 153.035V174.445L325.074 175.138V179.642H301.862V175.069ZM341.875 196.895C340.905 196.895 339.888 196.826 338.826 196.687C337.81 196.549 337.071 196.364 336.609 196.133V187.818C336.932 188.049 337.625 188.257 338.687 188.442C339.75 188.673 340.72 188.788 341.598 188.788C343.953 188.788 345.824 188.049 347.21 186.571C348.596 185.093 349.866 182.783 351.021 179.642H347.002L334.045 146.383L330.996 145.552V141.117H351.437V145.552L346.586 146.383L352.337 164.814L354.416 171.812L356.079 164.814L361.414 146.314L357.257 145.552V141.117H372.916V145.552L369.59 146.314C367.65 152.273 365.271 159.271 362.454 167.309C359.682 175.346 358.135 179.734 357.811 180.474C356.425 184.308 355.017 187.379 353.585 189.689C352.199 192.045 350.559 193.823 348.665 195.024C346.771 196.272 344.508 196.895 341.875 196.895Z"/>
</mask>
<path d="M33.4383 180.404C25.447 180.404 19.3726 178.095 15.2152 173.475C11.0579 168.81 8.97921 162.435 8.97921 154.352C8.97921 148.901 10.0878 144.166 12.3051 140.147C14.5224 136.082 17.5711 132.987 21.4513 130.862C25.3315 128.691 29.7198 127.606 34.6162 127.606C36.5563 127.606 38.4272 127.721 40.2287 127.952C42.0302 128.137 44.2013 128.414 46.7419 128.784C48.7282 129.107 50.0909 129.292 50.8299 129.338L49.9985 144.79H42.5845L40.2287 134.188C39.2124 133.08 37.0876 132.525 33.8541 132.525C30.2972 132.525 27.4795 134.304 25.4008 137.861C23.3683 141.371 22.352 146.545 22.352 153.381C22.352 160.033 23.3452 165.368 25.3315 169.387C27.364 173.406 30.2972 175.415 34.1312 175.415C36.0251 175.415 37.4571 175.231 38.4272 174.861C39.4434 174.492 40.298 173.96 40.9909 173.267L44.1089 165.854L50.8992 166.477L49.652 177.771C48.3124 177.864 46.6726 178.21 44.7325 178.811C42.8848 179.319 41.1294 179.711 39.4665 179.989C37.8497 180.266 35.8404 180.404 33.4383 180.404ZM59.0829 129.615L54.1634 128.714V124.488L68.0905 122.825H68.2984L70.3078 124.28L70.3771 139.316L69.8228 145.482C71.2548 144.143 73.1487 142.965 75.5045 141.949C77.8603 140.886 80.4471 140.355 83.2649 140.355C86.1751 140.355 88.4385 140.886 90.0553 141.949C91.672 143.011 92.8037 144.628 93.4504 146.799C94.0971 148.97 94.4205 151.857 94.4205 155.46V174.445L98.6471 175.069V179.642H79.3847V175.069L83.057 174.445V155.529C83.057 152.296 82.7106 150.056 82.0177 148.808C81.3248 147.515 79.9159 146.868 77.791 146.868C76.4976 146.868 75.2042 147.169 73.9108 147.769C72.6174 148.323 71.5319 149.016 70.6543 149.848V174.445L74.4652 175.069V179.642H55.4799V175.069L59.0829 174.445V129.615ZM120.734 180.404C114.405 180.404 109.717 178.626 106.668 175.069C103.619 171.466 102.095 166.57 102.095 160.38C102.095 156.176 102.88 152.55 104.451 149.501C106.021 146.453 108.215 144.143 111.033 142.572C113.897 140.956 117.246 140.147 121.08 140.147C125.93 140.147 129.626 141.371 132.166 143.82C134.753 146.268 136.093 149.732 136.185 154.213C136.185 157.169 135.977 159.548 135.562 161.35H113.874C114.105 165.276 115.052 168.279 116.715 170.357C118.424 172.39 120.803 173.406 123.852 173.406C125.561 173.406 127.339 173.129 129.187 172.575C131.081 171.974 132.605 171.304 133.76 170.565L135.7 174.792C134.499 176.131 132.444 177.402 129.533 178.603C126.669 179.804 123.736 180.404 120.734 180.404ZM125.168 156.777L125.237 153.866C125.237 150.956 124.845 148.739 124.06 147.215C123.274 145.69 121.935 144.928 120.041 144.928C118.101 144.928 116.599 145.783 115.537 147.492C114.474 149.155 113.897 152.25 113.805 156.777H125.168ZM141.431 175.069L145.103 174.445V148.393L141.015 147.145V141.741L153.626 140.216L154.18 140.494L155.566 142.434V145.898C157.044 144.374 159.215 143.08 162.079 142.018C164.943 140.909 167.391 140.355 169.424 140.355C171.918 140.355 173.928 140.771 175.452 141.602C177.023 142.434 178.201 143.727 178.986 145.482C180.556 144.004 182.52 142.78 184.875 141.81C187.277 140.84 189.703 140.355 192.151 140.355C196.216 140.355 199.126 141.533 200.881 143.889C202.683 146.245 203.584 150.102 203.584 155.46V174.445L207.741 175.069V179.642H188.964V175.069L192.082 174.445V155.737C192.082 152.411 191.689 150.102 190.904 148.808C190.165 147.515 188.779 146.868 186.746 146.868C184.621 146.868 182.404 147.769 180.095 149.571C180.372 151.28 180.51 153.243 180.51 155.46V174.445L184.39 175.069V179.642H165.474V175.069L168.939 174.445V155.529C168.939 152.25 168.569 149.986 167.83 148.739C167.137 147.492 165.798 146.868 163.812 146.868C162.518 146.868 161.225 147.169 159.931 147.769C158.684 148.323 157.599 149.016 156.675 149.848V174.445L160.416 175.069V179.642H141.431V175.069ZM220.657 135.158C218.856 135.158 217.401 134.627 216.292 133.565C215.184 132.502 214.629 131.14 214.629 129.477C214.629 127.537 215.23 125.943 216.431 124.696C217.678 123.448 219.341 122.825 221.42 122.825C223.498 122.825 225.092 123.356 226.201 124.419C227.309 125.481 227.864 126.844 227.864 128.507C227.864 130.493 227.24 132.11 225.993 133.357C224.746 134.558 222.99 135.158 220.727 135.158H220.657ZM216.431 148.393L211.788 147.076V141.879L225.646 140.216H225.785L227.933 141.672V174.445L232.09 175.069V179.642H212.135V175.069L216.431 174.445V148.393ZM245.563 173.891C245.886 174.399 246.626 174.861 247.78 175.277C248.981 175.693 250.182 175.9 251.383 175.9C253.277 175.9 254.709 175.508 255.679 174.723C256.696 173.891 257.204 172.829 257.204 171.535C257.204 170.149 256.557 169.018 255.264 168.14C253.97 167.216 251.845 166.108 248.889 164.814L246.256 163.636C243.253 162.297 240.99 160.68 239.466 158.786C237.988 156.846 237.248 154.398 237.248 151.441C237.248 149.316 237.872 147.423 239.119 145.76C240.366 144.05 242.168 142.711 244.524 141.741C246.88 140.771 249.651 140.286 252.839 140.286C255.056 140.286 256.973 140.424 258.59 140.702C260.206 140.979 261.846 141.325 263.509 141.741C264.618 142.064 265.449 142.249 266.003 142.295V151.719H259.837L258.035 146.383C257.804 145.967 257.25 145.598 256.372 145.275C255.495 144.905 254.501 144.72 253.393 144.72C251.637 144.72 250.252 145.113 249.235 145.898C248.219 146.637 247.711 147.654 247.711 148.947C247.711 150.425 248.289 151.603 249.443 152.481C250.598 153.312 252.446 154.305 254.986 155.46L256.442 156.084C260.183 157.654 263.116 159.363 265.241 161.211C267.366 163.013 268.429 165.507 268.429 168.694C268.429 172.113 267.066 174.93 264.341 177.148C261.615 179.319 257.596 180.404 252.284 180.404C249.836 180.404 247.665 180.196 245.771 179.781C243.877 179.411 241.798 178.903 239.535 178.256L237.248 177.633V168.417H243.831L245.563 173.891ZM285.219 180.266C282.17 180.266 279.907 179.573 278.428 178.187C276.996 176.755 276.28 174.561 276.28 171.605V146.938H272.054V142.919L273.44 142.364C274.548 141.995 275.518 141.602 276.35 141.187C277.274 140.309 278.013 139.154 278.567 137.722C279.26 136.059 280.022 133.726 280.854 130.724H287.297L287.713 141.117H297.622V146.938H287.852V165.299C287.852 167.84 287.921 169.618 288.06 170.634C288.198 171.651 288.452 172.321 288.822 172.644C289.238 172.921 289.977 173.06 291.039 173.06C293.21 173.06 295.266 172.69 297.206 171.951L298.661 176.316C297.368 177.379 295.451 178.302 292.91 179.088C290.369 179.873 287.806 180.266 285.219 180.266ZM301.862 175.069L306.089 174.445V148.393L302.001 147.145V141.741L313.503 140.216H313.711L315.651 141.672V143.335L315.443 149.086H315.651C315.974 148.023 316.713 146.799 317.868 145.413C319.023 143.981 320.478 142.757 322.233 141.741C324.035 140.678 325.975 140.147 328.054 140.147C329.255 140.147 330.179 140.309 330.825 140.632V152.689C330.086 152.134 329.278 151.695 328.4 151.372C327.569 151.049 326.483 150.887 325.144 150.887C323.481 150.887 321.979 151.118 320.64 151.58C319.3 151.996 318.238 152.481 317.452 153.035V174.445L325.074 175.138V179.642H301.862V175.069ZM341.875 196.895C340.905 196.895 339.888 196.826 338.826 196.687C337.81 196.549 337.071 196.364 336.609 196.133V187.818C336.932 188.049 337.625 188.257 338.687 188.442C339.75 188.673 340.72 188.788 341.598 188.788C343.953 188.788 345.824 188.049 347.21 186.571C348.596 185.093 349.866 182.783 351.021 179.642H347.002L334.045 146.383L330.996 145.552V141.117H351.437V145.552L346.586 146.383L352.337 164.814L354.416 171.812L356.079 164.814L361.414 146.314L357.257 145.552V141.117H372.916V145.552L369.59 146.314C367.65 152.273 365.271 159.271 362.454 167.309C359.682 175.346 358.135 179.734 357.811 180.474C356.425 184.308 355.017 187.379 353.585 189.689C352.199 192.045 350.559 193.823 348.665 195.024C346.771 196.272 344.508 196.895 341.875 196.895Z" fill="white"/>
<path d="M15.2152 173.475L9.41582 178.643L9.42859 178.657L9.44144 178.672L15.2152 173.475ZM12.3051 140.147L19.1065 143.9L19.1155 143.883L19.1245 143.867L12.3051 140.147ZM21.4513 130.862L25.1823 137.676L25.2133 137.659L25.2442 137.641L21.4513 130.862ZM40.2287 127.952L39.2409 135.657L39.3384 135.67L39.4361 135.68L40.2287 127.952ZM46.7419 128.784L47.99 121.117L47.9251 121.106L47.86 121.097L46.7419 128.784ZM50.8299 129.338L58.5866 129.755L59.0004 122.066L51.3145 121.585L50.8299 129.338ZM49.9985 144.79V152.557H57.3596L57.7551 145.207L49.9985 144.79ZM42.5845 144.79L35.0016 146.475L36.3534 152.557H42.5845V144.79ZM40.2287 134.188L47.8116 132.503L47.3603 130.473L45.9548 128.939L40.2287 134.188ZM25.4008 137.861L18.6942 133.941L18.6862 133.955L18.6783 133.969L25.4008 137.861ZM25.3315 169.387L18.3678 172.829L18.3836 172.861L18.3997 172.893L25.3315 169.387ZM38.4272 174.861L35.7725 167.561L35.717 167.581L35.6618 167.602L38.4272 174.861ZM40.9909 173.267L46.4836 178.76L47.5607 177.683L48.1513 176.279L40.9909 173.267ZM44.1089 165.854L44.8193 158.118L39.154 157.598L36.9485 162.842L44.1089 165.854ZM50.8992 166.477L58.6202 167.33L59.4886 159.465L51.6096 158.742L50.8992 166.477ZM49.652 177.771L50.1865 185.521L56.6606 185.074L57.3729 178.624L49.652 177.771ZM44.7325 178.811L46.7922 186.3L46.9113 186.268L47.0293 186.231L44.7325 178.811ZM39.4665 179.989L38.1895 172.326L38.1717 172.329L38.154 172.332L39.4665 179.989ZM33.4383 180.404V172.636C26.9791 172.636 23.2778 170.822 20.989 168.279L15.2152 173.475L9.44144 178.672C15.4674 185.367 23.9148 188.172 33.4383 188.172V180.404ZM15.2152 173.475L21.0147 168.308C18.4613 165.442 16.7471 161.104 16.7471 154.352H8.97921H1.21135C1.21135 163.767 3.65448 172.178 9.41582 178.643L15.2152 173.475ZM8.97921 154.352H16.7471C16.7471 149.967 17.6324 146.571 19.1065 143.9L12.3051 140.147L5.50373 136.395C2.54331 141.76 1.21135 147.835 1.21135 154.352H8.97921ZM12.3051 140.147L19.1245 143.867C20.6646 141.043 22.669 139.052 25.1823 137.676L21.4513 130.862L17.7203 124.049C12.4732 126.923 8.38015 131.121 5.48573 136.428L12.3051 140.147ZM21.4513 130.862L25.2442 137.641C27.8509 136.183 30.9102 135.374 34.6162 135.374V127.606V119.838C28.5294 119.838 22.812 121.2 17.6583 124.084L21.4513 130.862ZM34.6162 127.606V135.374C36.2483 135.374 37.7883 135.471 39.2409 135.657L40.2287 127.952L41.2165 120.247C39.0661 119.972 36.8644 119.838 34.6162 119.838V127.606ZM40.2287 127.952L39.4361 135.68C41.0945 135.85 43.1507 136.111 45.6238 136.471L46.7419 128.784L47.86 121.097C45.2518 120.717 42.9659 120.424 41.0212 120.225L40.2287 127.952ZM46.7419 128.784L45.4938 136.451C47.4448 136.768 49.1685 137.017 50.3454 137.091L50.8299 129.338L51.3145 121.585C51.0132 121.567 50.0115 121.446 47.99 121.117L46.7419 128.784ZM50.8299 129.338L43.0733 128.921L42.2418 144.372L49.9985 144.79L57.7551 145.207L58.5866 129.755L50.8299 129.338ZM49.9985 144.79V137.022H42.5845V144.79V152.557H49.9985V144.79ZM42.5845 144.79L50.1674 143.104L47.8116 132.503L40.2287 134.188L32.6458 135.873L35.0016 146.475L42.5845 144.79ZM40.2287 134.188L45.9548 128.939C44.0716 126.885 41.7139 125.915 39.8336 125.425C37.907 124.922 35.8521 124.758 33.8541 124.758V132.525V140.293C34.4464 140.293 34.914 140.319 35.272 140.356C35.6341 140.393 35.8361 140.438 35.9121 140.457C35.9924 140.478 35.8695 140.456 35.6241 140.326C35.3714 140.192 34.9461 139.921 34.5026 139.437L40.2287 134.188ZM33.8541 132.525V124.758C27.0531 124.758 21.9032 128.45 18.6942 133.941L25.4008 137.861L32.1073 141.78C32.6641 140.827 33.0841 140.513 33.2191 140.428C33.3023 140.376 33.4397 140.293 33.8541 140.293V132.525ZM25.4008 137.861L18.6783 133.969C15.6404 139.216 14.5842 146.005 14.5842 153.381H22.352H30.1199C30.1199 147.085 31.0962 143.527 32.1233 141.753L25.4008 137.861ZM22.352 153.381H14.5842C14.5842 160.696 15.6591 167.349 18.3678 172.829L25.3315 169.387L32.2952 165.945C31.0313 163.388 30.1199 159.37 30.1199 153.381H22.352ZM25.3315 169.387L18.3997 172.893C19.8516 175.764 21.871 178.402 24.6658 180.317C27.5275 182.277 30.7762 183.183 34.1312 183.183V175.415V167.648C33.6523 167.648 33.5173 167.549 33.4458 167.5C33.3073 167.405 32.8439 167.03 32.2633 165.882L25.3315 169.387ZM34.1312 175.415V183.183C36.3229 183.183 38.8884 182.998 41.1925 182.12L38.4272 174.861L35.6618 167.602C35.9209 167.503 35.9582 167.531 35.6316 167.573C35.3284 167.612 34.8418 167.648 34.1312 167.648V175.415ZM38.4272 174.861L41.0818 182.161C43.0532 181.444 44.9082 180.336 46.4836 178.76L40.9909 173.267L35.4982 167.775C35.583 167.69 35.6656 167.628 35.7293 167.588C35.7911 167.55 35.8129 167.546 35.7725 167.561L38.4272 174.861ZM40.9909 173.267L48.1513 176.279L51.2693 168.865L44.1089 165.854L36.9485 162.842L33.8305 170.256L40.9909 173.267ZM44.1089 165.854L43.3985 173.589L50.1888 174.212L50.8992 166.477L51.6096 158.742L44.8193 158.118L44.1089 165.854ZM50.8992 166.477L43.1783 165.625L41.9311 176.919L49.652 177.771L57.3729 178.624L58.6202 167.33L50.8992 166.477ZM49.652 177.771L49.1176 170.022C46.9585 170.171 44.6885 170.693 42.4357 171.39L44.7325 178.811L47.0293 186.231C48.6566 185.727 49.6664 185.557 50.1865 185.521L49.652 177.771ZM44.7325 178.811L42.6728 171.321C41.0487 171.767 39.556 172.099 38.1895 172.326L39.4665 179.989L40.7435 187.651C42.7029 187.324 44.7208 186.87 46.7922 186.3L44.7325 178.811ZM39.4665 179.989L38.154 172.332C37.1196 172.51 35.5828 172.636 33.4383 172.636V180.404V188.172C36.0979 188.172 38.5799 188.022 40.779 187.645L39.4665 179.989ZM59.0829 129.615H66.8508V123.141L60.482 121.974L59.0829 129.615ZM54.1634 128.714H46.3955V135.189L52.7644 136.355L54.1634 128.714ZM54.1634 124.488L53.2424 116.775L46.3955 117.592V124.488H54.1634ZM68.0905 122.825V115.057H67.6284L67.1696 115.112L68.0905 122.825ZM68.2984 122.825L72.8543 116.533L70.8156 115.057H68.2984V122.825ZM70.3078 124.28L78.0756 124.244L78.0574 120.301L74.8637 117.988L70.3078 124.28ZM70.3771 139.316L78.1138 140.011L78.1466 139.646L78.1449 139.28L70.3771 139.316ZM69.8228 145.482L62.0861 144.787L60.2637 165.062L75.1294 151.155L69.8228 145.482ZM75.5045 141.949L78.5813 149.081L78.6398 149.056L78.6979 149.03L75.5045 141.949ZM90.0553 141.949L94.3212 135.457L94.3212 135.457L90.0553 141.949ZM93.4504 146.799L100.895 144.581L100.895 144.581L93.4504 146.799ZM94.4205 174.445H86.6526V181.151L93.2867 182.13L94.4205 174.445ZM98.6471 175.069H106.415V168.363L99.7809 167.384L98.6471 175.069ZM98.6471 179.642V187.41H106.415V179.642H98.6471ZM79.3847 179.642H71.6168V187.41H79.3847V179.642ZM79.3847 175.069L78.0842 167.411L71.6168 168.509V175.069H79.3847ZM83.057 174.445L84.3575 182.104L90.8249 181.005V174.445H83.057ZM82.0177 148.808L75.1705 152.477L75.1985 152.529L75.2274 152.581L82.0177 148.808ZM73.9108 147.769L76.9708 154.909L77.0771 154.863L77.182 154.815L73.9108 147.769ZM70.6543 149.848L65.3119 144.209L62.8864 146.506V149.848H70.6543ZM70.6543 174.445H62.8864V181.045L69.3998 182.111L70.6543 174.445ZM74.4652 175.069H82.233V168.469L75.7196 167.403L74.4652 175.069ZM74.4652 179.642V187.41H82.233V179.642H74.4652ZM55.4799 179.642H47.712V187.41H55.4799V179.642ZM55.4799 175.069L54.1552 167.415L47.712 168.53V175.069H55.4799ZM59.0829 174.445L60.4077 182.099L66.8508 180.984V174.445H59.0829ZM59.0829 129.615L60.482 121.974L55.5624 121.074L54.1634 128.714L52.7644 136.355L57.6839 137.256L59.0829 129.615ZM54.1634 128.714H61.9313V124.488H54.1634H46.3955V128.714H54.1634ZM54.1634 124.488L55.0844 132.201L69.0115 130.538L68.0905 122.825L67.1696 115.112L53.2424 116.775L54.1634 124.488ZM68.0905 122.825V130.593H68.2984V122.825V115.057H68.0905V122.825ZM68.2984 122.825L63.7425 129.116L65.7519 130.571L70.3078 124.28L74.8637 117.988L72.8543 116.533L68.2984 122.825ZM70.3078 124.28L62.54 124.316L62.6093 139.352L70.3771 139.316L78.1449 139.28L78.0756 124.244L70.3078 124.28ZM70.3771 139.316L62.6404 138.62L62.0861 144.787L69.8228 145.482L77.5594 146.178L78.1138 140.011L70.3771 139.316ZM69.8228 145.482L75.1294 151.155C75.7411 150.583 76.8078 149.846 78.5813 149.081L75.5045 141.949L72.4277 134.816C69.4896 136.084 66.7684 137.703 64.5161 139.81L69.8228 145.482ZM75.5045 141.949L78.6979 149.03C79.9622 148.46 81.4477 148.123 83.2649 148.123V140.355V132.587C79.4466 132.587 75.7585 133.313 72.3111 134.868L75.5045 141.949ZM83.2649 140.355V148.123C84.2649 148.123 84.9443 148.216 85.3703 148.316C85.7892 148.414 85.8783 148.499 85.7893 148.44L90.0553 141.949L94.3212 135.457C90.9488 133.241 86.9756 132.587 83.2649 132.587V140.355ZM90.0553 141.949L85.7893 148.44C85.7827 148.436 85.7689 148.426 85.7547 148.412C85.7408 148.398 85.7406 148.395 85.7529 148.413C85.776 148.446 85.8859 148.614 86.0058 149.017L93.4504 146.799L100.895 144.581C99.8196 140.971 97.7224 137.692 94.3212 135.457L90.0553 141.949ZM93.4504 146.799L86.0058 149.017C86.3502 150.173 86.6526 152.221 86.6526 155.46H94.4205H102.188C102.188 151.493 101.844 147.767 100.895 144.581L93.4504 146.799ZM94.4205 155.46H86.6526V174.445H94.4205H102.188V155.46H94.4205ZM94.4205 174.445L93.2867 182.13L97.5133 182.754L98.6471 175.069L99.7809 167.384L95.5543 166.761L94.4205 174.445ZM98.6471 175.069H90.8793V179.642H98.6471H106.415V175.069H98.6471ZM98.6471 179.642V171.874H79.3847V179.642V187.41H98.6471V179.642ZM79.3847 179.642H87.1526V175.069H79.3847H71.6168V179.642H79.3847ZM79.3847 175.069L80.6852 182.727L84.3575 182.104L83.057 174.445L81.7566 166.787L78.0842 167.411L79.3847 175.069ZM83.057 174.445H90.8249V155.529H83.057H75.2892V174.445H83.057ZM83.057 155.529H90.8249C90.8249 152.252 90.561 148.191 88.808 145.036L82.0177 148.808L75.2274 152.581C75.0641 152.287 75.0175 152.113 75.0281 152.148C75.0363 152.176 75.0754 152.319 75.1206 152.611C75.2135 153.212 75.2892 154.158 75.2892 155.529H83.057ZM82.0177 148.808L88.8649 145.14C86.2554 140.269 81.3443 139.1 77.791 139.1V146.868V154.636C78.1253 154.636 77.8163 154.695 77.2009 154.413C76.4583 154.072 75.6712 153.411 75.1705 152.477L82.0177 148.808ZM77.791 146.868V139.1C75.2563 139.1 72.8519 139.696 70.6397 140.724L73.9108 147.769L77.182 154.815C77.5566 154.641 77.739 154.636 77.791 154.636V146.868ZM73.9108 147.769L70.8509 140.629C68.8499 141.487 66.9552 142.652 65.3119 144.209L70.6543 149.848L75.9966 155.487C76.1086 155.381 76.385 155.16 76.9708 154.909L73.9108 147.769ZM70.6543 149.848H62.8864V174.445H70.6543H78.4221V149.848H70.6543ZM70.6543 174.445L69.3998 182.111L73.2107 182.735L74.4652 175.069L75.7196 167.403L71.9087 166.779L70.6543 174.445ZM74.4652 175.069H66.6973V179.642H74.4652H82.233V175.069H74.4652ZM74.4652 179.642V171.874H55.4799V179.642V187.41H74.4652V179.642ZM55.4799 179.642H63.2478V175.069H55.4799H47.712V179.642H55.4799ZM55.4799 175.069L56.8046 182.723L60.4077 182.099L59.0829 174.445L57.7582 166.791L54.1552 167.415L55.4799 175.069ZM59.0829 174.445H66.8508V129.615H59.0829H51.3151V174.445H59.0829ZM106.668 175.069L100.738 180.087L100.754 180.105L100.77 180.124L106.668 175.069ZM104.451 149.501L111.356 153.059L111.356 153.059L104.451 149.501ZM111.033 142.572L114.815 149.357L114.833 149.347L114.852 149.337L111.033 142.572ZM132.166 143.82L126.776 149.413L126.801 149.437L126.827 149.461L132.166 143.82ZM136.185 154.213H143.953V154.133L143.951 154.053L136.185 154.213ZM135.562 161.35V169.118H141.741L143.13 163.096L135.562 161.35ZM113.874 161.35V153.582H105.636L106.12 161.806L113.874 161.35ZM116.715 170.357L110.649 175.21L110.708 175.284L110.77 175.357L116.715 170.357ZM129.187 172.575L131.419 180.015L131.477 179.997L131.535 179.979L129.187 172.575ZM133.76 170.565L140.82 167.325L137.094 159.209L129.573 164.023L133.76 170.565ZM135.7 174.792L141.484 179.977L144.886 176.183L142.76 171.551L135.7 174.792ZM129.533 178.603L126.57 171.422L126.55 171.431L126.529 171.439L129.533 178.603ZM125.168 156.777V164.544H132.753L132.934 156.962L125.168 156.777ZM125.237 153.866L133.003 154.051L133.005 153.959V153.866H125.237ZM124.06 147.215L117.154 150.772L117.154 150.772L124.06 147.215ZM115.537 147.492L122.083 151.674L122.109 151.634L122.134 151.593L115.537 147.492ZM113.805 156.777L106.038 156.618L105.877 164.544H113.805V156.777ZM120.734 180.404V172.636C115.834 172.636 113.668 171.3 112.566 170.014L106.668 175.069L100.77 180.124C105.765 185.951 112.977 188.172 120.734 188.172V180.404ZM106.668 175.069L112.598 170.051C111.063 168.238 109.863 165.313 109.863 160.38H102.095H94.3269C94.3269 167.826 96.1749 174.694 100.738 180.087L106.668 175.069ZM102.095 160.38H109.863C109.863 157.138 110.466 154.786 111.356 153.059L104.451 149.501L97.5452 145.944C95.294 150.314 94.3269 155.214 94.3269 160.38H102.095ZM104.451 149.501L111.356 153.059C112.272 151.28 113.42 150.135 114.815 149.357L111.033 142.572L107.251 135.787C103.011 138.151 99.7699 141.625 97.5452 145.944L104.451 149.501ZM111.033 142.572L114.852 149.337C116.37 148.48 118.361 147.915 121.08 147.915V140.147V132.379C116.132 132.379 111.424 133.432 107.214 135.808L111.033 142.572ZM121.08 140.147V147.915C124.685 147.915 126.154 148.813 126.776 149.413L132.166 143.82L137.556 138.226C133.098 133.929 127.175 132.379 121.08 132.379V140.147ZM132.166 143.82L126.827 149.461C127.536 150.133 128.358 151.404 128.419 154.373L136.185 154.213L143.951 154.053C143.828 148.061 141.97 142.403 137.506 138.178L132.166 143.82ZM136.185 154.213H128.417C128.417 156.886 128.222 158.61 127.993 159.603L135.562 161.35L143.13 163.096C143.733 160.486 143.953 157.452 143.953 154.213H136.185ZM135.562 161.35V153.582H113.874V161.35V169.118H135.562V161.35ZM113.874 161.35L106.12 161.806C106.402 166.609 107.606 171.406 110.649 175.21L116.715 170.357L122.781 165.505C122.497 165.151 121.808 163.943 121.628 160.894L113.874 161.35ZM116.715 170.357L110.77 175.357C114.182 179.415 118.889 181.174 123.852 181.174V173.406V165.638C123.192 165.638 122.901 165.53 122.832 165.501C122.795 165.484 122.777 165.473 122.766 165.464C122.754 165.455 122.718 165.427 122.66 165.358L116.715 170.357ZM123.852 173.406V181.174C126.407 181.174 128.939 180.759 131.419 180.015L129.187 172.575L126.955 165.134C125.74 165.499 124.715 165.638 123.852 165.638V173.406ZM129.187 172.575L131.535 179.979C133.814 179.256 136.026 178.337 137.947 177.108L133.76 170.565L129.573 164.023C129.184 164.271 128.348 164.692 126.839 165.17L129.187 172.575ZM133.76 170.565L126.7 173.806L128.64 178.032L135.7 174.792L142.76 171.551L140.82 167.325L133.76 170.565ZM135.7 174.792L129.916 169.606C129.948 169.571 129.772 169.772 129.174 170.141C128.592 170.501 127.746 170.937 126.57 171.422L129.533 178.603L132.497 185.783C135.792 184.423 139.124 182.609 141.484 179.977L135.7 174.792ZM129.533 178.603L126.529 171.439C124.583 172.255 122.669 172.636 120.734 172.636V180.404V188.172C124.803 188.172 128.756 187.352 132.537 185.766L129.533 178.603ZM125.168 156.777L132.934 156.962L133.003 154.051L125.237 153.866L117.472 153.682L117.402 156.592L125.168 156.777ZM125.237 153.866H133.005C133.005 150.471 132.583 146.798 130.965 143.657L124.06 147.215L117.154 150.772C117.098 150.664 117.194 150.809 117.294 151.375C117.392 151.929 117.47 152.742 117.47 153.866H125.237ZM124.06 147.215L130.965 143.657C129.963 141.712 128.431 139.957 126.307 138.748C124.227 137.565 122.029 137.16 120.041 137.16V144.928V152.696C119.947 152.696 119.365 152.673 118.624 152.251C117.84 151.805 117.371 151.193 117.154 150.772L124.06 147.215ZM120.041 144.928V137.16C115.296 137.16 111.356 139.505 108.94 143.391L115.537 147.492L122.134 151.593C122.095 151.655 121.849 152.009 121.302 152.32C120.743 152.638 120.249 152.696 120.041 152.696V144.928ZM115.537 147.492L108.991 143.31C107.699 145.333 107.046 147.623 106.671 149.636C106.279 151.738 106.09 154.097 106.038 156.618L113.805 156.777L121.571 156.935C121.612 154.929 121.758 153.477 121.943 152.485C122.145 151.403 122.313 151.314 122.083 151.674L115.537 147.492ZM113.805 156.777V164.544H125.168V156.777V149.009H113.805V156.777ZM141.431 175.069L140.131 167.411L133.663 168.509V175.069H141.431ZM145.103 174.445L146.404 182.104L152.871 181.005V174.445H145.103ZM145.103 148.393H152.871V142.641L147.37 140.963L145.103 148.393ZM141.015 147.145H133.247V152.897L138.749 154.575L141.015 147.145ZM141.015 141.741L140.083 134.029L133.247 134.855V141.741H141.015ZM153.626 140.216L157.1 133.269L155.012 132.225L152.694 132.505L153.626 140.216ZM154.18 140.494L160.501 135.979L159.38 134.409L157.654 133.546L154.18 140.494ZM155.566 142.434H163.334V139.944L161.887 137.919L155.566 142.434ZM155.566 145.898H147.798V165.067L161.143 151.306L155.566 145.898ZM162.079 142.018L164.781 149.301L164.832 149.282L164.883 149.262L162.079 142.018ZM175.452 141.602L171.732 148.422L171.775 148.445L171.818 148.467L175.452 141.602ZM178.986 145.482L171.895 148.655L176.356 158.625L184.31 151.139L178.986 145.482ZM184.875 141.81L181.967 134.607L181.942 134.617L181.918 134.627L184.875 141.81ZM200.881 143.889L194.652 148.53L194.681 148.569L194.711 148.607L200.881 143.889ZM203.584 174.445H195.816V181.135L202.431 182.127L203.584 174.445ZM207.741 175.069H215.509V168.379L208.893 167.387L207.741 175.069ZM207.741 179.642V187.41H215.509V179.642H207.741ZM188.964 179.642H181.196V187.41H188.964V179.642ZM188.964 175.069L187.44 167.452L181.196 168.701V175.069H188.964ZM192.082 174.445L193.605 182.062L199.849 180.814V174.445H192.082ZM190.904 148.808L184.159 152.662L184.21 152.752L184.264 152.84L190.904 148.808ZM180.095 149.571L175.317 143.446L171.691 146.274L172.427 150.814L180.095 149.571ZM180.51 174.445H172.742V181.065L179.278 182.115L180.51 174.445ZM184.39 175.069H192.158V168.45L185.623 167.4L184.39 175.069ZM184.39 179.642V187.41H192.158V179.642H184.39ZM165.474 179.642H157.707V187.41H165.474V179.642ZM165.474 175.069L164.098 167.424L157.707 168.575V175.069H165.474ZM168.939 174.445L170.315 182.09L176.707 180.94V174.445H168.939ZM167.83 148.739L161.04 152.511L161.093 152.606L161.148 152.699L167.83 148.739ZM159.931 147.769L163.086 154.867L163.145 154.841L163.202 154.815L159.931 147.769ZM156.675 149.848L151.478 144.074L148.907 146.388V149.848H156.675ZM156.675 174.445H148.907V181.026L155.398 182.108L156.675 174.445ZM160.416 175.069H168.184V168.489L161.693 167.407L160.416 175.069ZM160.416 179.642V187.41H168.184V179.642H160.416ZM141.431 179.642H133.663V187.41H141.431V179.642ZM141.431 175.069L142.732 182.727L146.404 182.104L145.103 174.445L143.803 166.787L140.131 167.411L141.431 175.069ZM145.103 174.445H152.871V148.393H145.103H137.336V174.445H145.103ZM145.103 148.393L147.37 140.963L143.282 139.716L141.015 147.145L138.749 154.575L142.837 155.822L145.103 148.393ZM141.015 147.145H148.783V141.741H141.015H133.247V147.145H141.015ZM141.015 141.741L141.948 149.453L154.558 147.928L153.626 140.216L152.694 132.505L140.083 134.029L141.015 141.741ZM153.626 140.216L150.152 147.164L150.706 147.441L154.18 140.494L157.654 133.546L157.1 133.269L153.626 140.216ZM154.18 140.494L147.859 145.009L149.245 146.949L155.566 142.434L161.887 137.919L160.501 135.979L154.18 140.494ZM155.566 142.434H147.798V145.898H155.566H163.334V142.434H155.566ZM155.566 145.898L161.143 151.306C161.54 150.896 162.561 150.124 164.781 149.301L162.079 142.018L159.378 134.735C155.869 136.037 152.548 137.852 149.99 140.491L155.566 145.898ZM162.079 142.018L164.883 149.262C167.264 148.34 168.71 148.123 169.424 148.123V140.355V132.587C166.073 132.587 162.622 133.478 159.275 134.774L162.079 142.018ZM169.424 140.355V148.123C171.15 148.123 171.739 148.425 171.732 148.422L175.452 141.602L179.172 134.783C176.116 133.116 172.687 132.587 169.424 132.587V140.355ZM175.452 141.602L171.818 148.467C171.827 148.472 171.821 148.47 171.805 148.458C171.79 148.446 171.777 148.434 171.77 148.426C171.764 148.419 171.772 148.427 171.792 148.458C171.813 148.49 171.85 148.552 171.895 148.655L178.986 145.482L186.077 142.31C184.645 139.111 182.318 136.448 179.087 134.737L175.452 141.602ZM178.986 145.482L184.31 151.139C185.079 150.415 186.197 149.667 187.833 148.993L184.875 141.81L181.918 134.627C178.842 135.894 176.034 137.593 173.662 139.826L178.986 145.482ZM184.875 141.81L187.784 149.013C189.316 148.394 190.757 148.123 192.151 148.123V140.355V132.587C188.649 132.587 185.239 133.286 181.967 134.607L184.875 141.81ZM192.151 140.355V148.123C193.465 148.123 194.167 148.317 194.468 148.439C194.608 148.495 194.658 148.535 194.658 148.535C194.66 148.536 194.658 148.535 194.653 148.53C194.649 148.526 194.648 148.524 194.652 148.53L200.881 143.889L207.11 139.248C203.376 134.236 197.661 132.587 192.151 132.587V140.355ZM200.881 143.889L194.711 148.607C194.925 148.888 195.816 150.596 195.816 155.46H203.584H211.351C211.351 149.607 210.44 143.602 207.052 139.17L200.881 143.889ZM203.584 155.46H195.816V174.445H203.584H211.351V155.46H203.584ZM203.584 174.445L202.431 182.127L206.589 182.751L207.741 175.069L208.893 167.387L204.736 166.763L203.584 174.445ZM207.741 175.069H199.973V179.642H207.741H215.509V175.069H207.741ZM207.741 179.642V171.874H188.964V179.642V187.41H207.741V179.642ZM188.964 179.642H196.731V175.069H188.964H181.196V179.642H188.964ZM188.964 175.069L190.487 182.686L193.605 182.062L192.082 174.445L190.558 166.828L187.44 167.452L188.964 175.069ZM192.082 174.445H199.849V155.737H192.082H184.314V174.445H192.082ZM192.082 155.737H199.849C199.849 152.32 199.54 148.065 197.544 144.777L190.904 148.808L184.264 152.84C184.085 152.545 184.029 152.363 184.036 152.383C184.04 152.397 184.081 152.528 184.129 152.812C184.229 153.4 184.314 154.345 184.314 155.737H192.082ZM190.904 148.808L197.648 144.954C195.037 140.386 190.418 139.1 186.746 139.1V146.868V154.636C186.983 154.636 186.641 154.68 186.025 154.392C185.305 154.056 184.608 153.448 184.159 152.662L190.904 148.808ZM186.746 146.868V139.1C182.339 139.1 178.482 140.977 175.317 143.446L180.095 149.571L184.872 155.696C186.326 154.561 186.903 154.636 186.746 154.636V146.868ZM180.095 149.571L172.427 150.814C172.622 152.017 172.742 153.55 172.742 155.46H180.51H188.278C188.278 152.936 188.121 150.543 187.762 148.327L180.095 149.571ZM180.51 155.46H172.742V174.445H180.51H188.278V155.46H180.51ZM180.51 174.445L179.278 182.115L183.158 182.738L184.39 175.069L185.623 167.4L181.743 166.776L180.51 174.445ZM184.39 175.069H176.623V179.642H184.39H192.158V175.069H184.39ZM184.39 179.642V171.874H165.474V179.642V187.41H184.39V179.642ZM165.474 179.642H173.242V175.069H165.474H157.707V179.642H165.474ZM165.474 175.069L166.851 182.714L170.315 182.09L168.939 174.445L167.563 166.8L164.098 167.424L165.474 175.069ZM168.939 174.445H176.707V155.529H168.939H161.171V174.445H168.939ZM168.939 155.529H176.707C176.707 152.207 176.428 148.011 174.513 144.779L167.83 148.739L161.148 152.699C161.051 152.536 160.99 152.407 160.956 152.328C160.938 152.287 160.926 152.256 160.919 152.236C160.912 152.215 160.908 152.205 160.908 152.204C160.908 152.204 160.911 152.212 160.915 152.23C160.92 152.249 160.927 152.275 160.935 152.311C160.952 152.384 160.973 152.487 160.995 152.624C161.091 153.207 161.171 154.147 161.171 155.529H168.939ZM167.83 148.739L174.621 144.967C172.043 140.327 167.371 139.1 163.812 139.1V146.868V154.636C164.042 154.636 163.674 154.679 163.028 154.378C162.268 154.024 161.52 153.375 161.04 152.511L167.83 148.739ZM163.812 146.868V139.1C161.277 139.1 158.872 139.696 156.66 140.724L159.931 147.769L163.202 154.815C163.577 154.641 163.759 154.636 163.812 154.636V146.868ZM159.931 147.769L156.776 140.671C154.856 141.524 153.065 142.646 151.478 144.074L156.675 149.848L161.871 155.622C162.132 155.387 162.512 155.122 163.086 154.867L159.931 147.769ZM156.675 149.848H148.907V174.445H156.675H164.443V149.848H156.675ZM156.675 174.445L155.398 182.108L159.139 182.731L160.416 175.069L161.693 167.407L157.952 166.783L156.675 174.445ZM160.416 175.069H152.648V179.642H160.416H168.184V175.069H160.416ZM160.416 179.642V171.874H141.431V179.642V187.41H160.416V179.642ZM141.431 179.642H149.199V175.069H141.431H133.663V179.642H141.431ZM216.431 124.696L210.938 119.203L210.886 119.255L210.835 119.308L216.431 124.696ZM226.201 124.419L231.575 118.81L231.575 118.81L226.201 124.419ZM225.993 133.357L231.381 138.952L231.434 138.901L231.485 138.85L225.993 133.357ZM216.431 148.393H224.199V142.521L218.55 140.919L216.431 148.393ZM211.788 147.076H204.021V152.947L209.669 154.549L211.788 147.076ZM211.788 141.879L210.863 134.167L204.021 134.988V141.879H211.788ZM225.646 140.216V132.449H225.182L224.721 132.504L225.646 140.216ZM225.785 140.216L230.141 133.785L228.168 132.449H225.785V140.216ZM227.933 141.672H235.701V137.551L232.289 135.24L227.933 141.672ZM227.933 174.445H220.165V181.135L226.781 182.127L227.933 174.445ZM232.09 175.069H239.858V168.379L233.242 167.387L232.09 175.069ZM232.09 179.642V187.41H239.858V179.642H232.09ZM212.135 179.642H204.367V187.41H212.135V179.642ZM212.135 175.069L211.019 167.382L204.367 168.347V175.069H212.135ZM216.431 174.445L217.547 182.133L224.199 181.167V174.445H216.431ZM220.657 135.158V127.391C220.52 127.391 220.626 127.371 220.879 127.463C221.153 127.563 221.437 127.736 221.667 127.956L216.292 133.565L210.918 139.173C213.72 141.859 217.225 142.926 220.657 142.926V135.158ZM216.292 133.565L221.667 127.956C221.866 128.147 222.088 128.444 222.24 128.819C222.387 129.181 222.397 129.435 222.397 129.477H214.629H206.861C206.861 133.062 208.145 136.516 210.918 139.173L216.292 133.565ZM214.629 129.477H222.397C222.397 129.313 222.421 129.374 222.349 129.565C222.314 129.657 222.265 129.757 222.203 129.856C222.14 129.954 222.077 130.031 222.026 130.084L216.431 124.696L210.835 119.308C208.068 122.181 206.861 125.79 206.861 129.477H214.629ZM216.431 124.696L221.923 130.188C221.851 130.261 221.757 130.339 221.645 130.411C221.533 130.483 221.427 130.533 221.341 130.566C221.165 130.632 221.156 130.593 221.42 130.593V122.825V115.057C217.677 115.057 213.9 116.241 210.938 119.203L216.431 124.696ZM221.42 122.825V130.593C221.814 130.593 221.875 130.645 221.717 130.593C221.633 130.564 221.498 130.51 221.332 130.412C221.165 130.314 220.991 130.185 220.826 130.027L226.201 124.419L231.575 118.81C228.571 115.931 224.778 115.057 221.42 115.057V122.825ZM226.201 124.419L220.826 130.027C220.627 129.836 220.405 129.539 220.252 129.164C220.105 128.803 220.096 128.548 220.096 128.507H227.864H235.631C235.631 124.921 234.348 121.468 231.575 118.81L226.201 124.419ZM227.864 128.507H220.096C220.096 128.682 220.07 128.617 220.148 128.413C220.186 128.315 220.239 128.209 220.308 128.104C220.376 128 220.445 127.919 220.5 127.864L225.993 133.357L231.485 138.85C234.378 135.957 235.631 132.269 235.631 128.507H227.864ZM225.993 133.357L220.605 127.762C220.72 127.651 220.844 127.557 220.965 127.484C221.086 127.412 221.179 127.375 221.226 127.358C221.314 127.328 221.185 127.391 220.727 127.391V135.158V142.926C224.361 142.926 228.284 141.935 231.381 138.952L225.993 133.357ZM220.727 135.158V127.391H220.657V135.158V142.926H220.727V135.158ZM216.431 148.393L218.55 140.919L213.908 139.603L211.788 147.076L209.669 154.549L214.312 155.866L216.431 148.393ZM211.788 147.076H219.556V141.879H211.788H204.021V147.076H211.788ZM211.788 141.879L212.714 149.592L226.572 147.929L225.646 140.216L224.721 132.504L210.863 134.167L211.788 141.879ZM225.646 140.216V147.984H225.785V140.216V132.449H225.646V140.216ZM225.785 140.216L221.428 146.648L223.576 148.103L227.933 141.672L232.289 135.24L230.141 133.785L225.785 140.216ZM227.933 141.672H220.165V174.445H227.933H235.701V141.672H227.933ZM227.933 174.445L226.781 182.127L230.938 182.751L232.09 175.069L233.242 167.387L229.085 166.763L227.933 174.445ZM232.09 175.069H224.322V179.642H232.09H239.858V175.069H232.09ZM232.09 179.642V171.874H212.135V179.642V187.41H232.09V179.642ZM212.135 179.642H219.903V175.069H212.135H204.367V179.642H212.135ZM212.135 175.069L213.251 182.756L217.547 182.133L216.431 174.445L215.315 166.758L211.019 167.382L212.135 175.069ZM216.431 174.445H224.199V148.393H216.431H208.663V174.445H216.431ZM245.563 173.891L238.157 176.235L238.464 177.204L239.01 178.061L245.563 173.891ZM247.78 175.277L245.149 182.586L245.194 182.602L245.239 182.617L247.78 175.277ZM255.679 174.723L260.567 180.76L260.583 180.747L260.598 180.735L255.679 174.723ZM255.264 168.14L250.749 174.461L250.825 174.515L250.902 174.568L255.264 168.14ZM248.889 164.814L245.717 171.905L245.746 171.918L245.776 171.931L248.889 164.814ZM246.256 163.636L249.428 156.546L249.421 156.542L246.256 163.636ZM239.466 158.786L233.287 163.494L233.35 163.576L233.414 163.657L239.466 158.786ZM239.119 145.76L245.334 150.42L245.364 150.38L245.394 150.339L239.119 145.76ZM244.524 141.741L241.566 134.558L241.566 134.558L244.524 141.741ZM263.509 141.741L265.684 134.284L265.539 134.241L265.393 134.205L263.509 141.741ZM266.003 142.295H273.771V135.148L266.649 134.554L266.003 142.295ZM266.003 151.719V159.486H273.771V151.719H266.003ZM259.837 151.719L252.477 154.204L254.261 159.486H259.837V151.719ZM258.035 146.383L265.395 143.898L265.169 143.229L264.826 142.611L258.035 146.383ZM256.372 145.275L253.358 152.434L253.521 152.502L253.687 152.564L256.372 145.275ZM249.235 145.898L253.804 152.18L253.896 152.114L253.985 152.045L249.235 145.898ZM249.443 152.481L244.743 158.665L244.823 158.726L244.905 158.785L249.443 152.481ZM254.986 155.46L251.772 162.532L251.849 162.567L251.927 162.6L254.986 155.46ZM256.442 156.084L253.382 163.224L253.408 163.235L253.435 163.246L256.442 156.084ZM265.241 161.211L260.144 167.073L260.181 167.105L260.218 167.136L265.241 161.211ZM264.341 177.148L269.181 183.223L269.212 183.198L269.243 183.173L264.341 177.148ZM245.771 179.781L247.436 172.193L247.348 172.174L247.259 172.157L245.771 179.781ZM239.535 178.256L241.669 170.787L241.624 170.774L241.579 170.762L239.535 178.256ZM237.248 177.633H229.481V183.566L235.205 185.127L237.248 177.633ZM237.248 168.417V160.649H229.481V168.417H237.248ZM243.831 168.417L251.237 166.074L249.52 160.649H243.831V168.417ZM245.563 173.891L239.01 178.061C240.822 180.91 243.773 182.09 245.149 182.586L247.78 175.277L250.412 167.968C250.161 167.878 250.232 167.878 250.477 168.031C250.683 168.16 251.442 168.661 252.117 169.721L245.563 173.891ZM247.78 175.277L245.239 182.617C247.21 183.299 249.268 183.668 251.383 183.668V175.9V168.133C251.097 168.133 250.753 168.086 250.321 167.936L247.78 175.277ZM251.383 175.9V183.668C254.177 183.668 257.658 183.115 260.567 180.76L255.679 174.723L250.792 168.685C251.284 168.287 251.698 168.149 251.824 168.115C251.931 168.085 251.817 168.133 251.383 168.133V175.9ZM255.679 174.723L260.598 180.735C263.386 178.454 264.972 175.199 264.972 171.535H257.204H249.436C249.436 171.137 249.521 170.565 249.815 169.951C250.107 169.339 250.488 168.934 250.76 168.711L255.679 174.723ZM257.204 171.535H264.972C264.972 167.213 262.731 163.82 259.625 161.712L255.264 168.14L250.902 174.568C250.762 174.472 250.344 174.148 249.974 173.501C249.584 172.819 249.436 172.106 249.436 171.535H257.204ZM255.264 168.14L259.779 161.819C257.798 160.404 255.057 159.034 252.003 157.698L248.889 164.814L245.776 171.931C248.634 173.181 250.143 174.028 250.749 174.461L255.264 168.14ZM248.889 164.814L252.061 157.724L249.428 156.546L246.256 163.636L243.084 170.727L245.717 171.905L248.889 164.814ZM246.256 163.636L249.421 156.542C247.166 155.536 246.046 154.573 245.517 153.915L239.466 158.786L233.414 163.657C235.934 166.787 239.341 169.057 243.091 170.73L246.256 163.636ZM239.466 158.786L245.644 154.078C245.401 153.759 245.016 153.067 245.016 151.441H237.248H229.481C229.481 155.728 230.574 159.933 233.287 163.494L239.466 158.786ZM237.248 151.441H245.016C245.016 150.957 245.119 150.707 245.334 150.42L239.119 145.76L232.905 141.099C230.625 144.138 229.481 147.676 229.481 151.441H237.248ZM239.119 145.76L245.394 150.339C245.639 150.003 246.178 149.46 247.481 148.924L244.524 141.741L241.566 134.558C238.158 135.962 235.094 138.098 232.844 141.181L239.119 145.76ZM244.524 141.741L247.481 148.924C248.696 148.424 250.42 148.054 252.839 148.054V140.286V132.518C248.882 132.518 245.064 133.118 241.566 134.558L244.524 141.741ZM252.839 140.286V148.054C254.758 148.054 256.214 148.176 257.277 148.358L258.59 140.702L259.902 133.045C257.731 132.673 255.353 132.518 252.839 132.518V140.286ZM258.59 140.702L257.277 148.358C258.693 148.601 260.143 148.906 261.625 149.277L263.509 141.741L265.393 134.205C263.55 133.744 261.719 133.357 259.902 133.045L258.59 140.702ZM263.509 141.741L261.334 149.198C262.529 149.546 263.985 149.922 265.358 150.036L266.003 142.295L266.649 134.554C266.768 134.564 266.828 134.575 266.813 134.572C266.801 134.57 266.749 134.561 266.649 134.539C266.444 134.493 266.129 134.414 265.684 134.284L263.509 141.741ZM266.003 142.295H258.236V151.719H266.003H273.771V142.295H266.003ZM266.003 151.719V143.951H259.837V151.719V159.486H266.003V151.719ZM259.837 151.719L267.196 149.233L265.395 143.898L258.035 146.383L250.676 148.868L252.477 154.204L259.837 151.719ZM258.035 146.383L264.826 142.611C263.152 139.598 260.234 138.419 259.058 137.986L256.372 145.275L253.687 152.564C253.764 152.592 253.525 152.516 253.137 152.258C252.773 152.015 251.922 151.375 251.245 150.156L258.035 146.383ZM256.372 145.275L259.387 138.115C257.411 137.284 255.369 136.952 253.393 136.952V144.72V152.488C253.516 152.488 253.563 152.498 253.548 152.496C253.541 152.494 253.519 152.49 253.486 152.48C253.452 152.47 253.409 152.455 253.358 152.434L256.372 145.275ZM253.393 144.72V136.952C250.541 136.952 247.284 137.589 244.486 139.752L249.235 145.898L253.985 152.045C253.619 152.328 253.3 152.447 253.155 152.488C253.028 152.524 253.081 152.488 253.393 152.488V144.72ZM249.235 145.898L244.667 139.616C241.572 141.867 239.943 145.254 239.943 148.947H247.711H255.479C255.479 149.338 255.396 149.977 255.04 150.689C254.68 151.408 254.194 151.897 253.804 152.18L249.235 145.898ZM247.711 148.947H239.943C239.943 152.798 241.613 156.286 244.743 158.665L249.443 152.481L254.144 146.296C254.426 146.511 254.821 146.912 255.119 147.52C255.415 148.123 255.479 148.652 255.479 148.947H247.711ZM249.443 152.481L244.905 158.785C246.702 160.079 249.12 161.326 251.772 162.532L254.986 155.46L258.201 148.389C255.772 147.285 254.495 146.546 253.982 146.177L249.443 152.481ZM254.986 155.46L251.927 162.6L253.382 163.224L256.442 156.084L259.501 148.944L258.046 148.32L254.986 155.46ZM256.442 156.084L253.435 163.246C256.721 164.625 258.851 165.949 260.144 167.073L265.241 161.211L270.338 155.349C267.381 152.778 263.645 150.683 259.448 148.921L256.442 156.084ZM265.241 161.211L260.218 167.136C260.34 167.24 260.661 167.422 260.661 168.694H268.429H276.196C276.196 163.592 274.392 158.786 270.265 155.286L265.241 161.211ZM268.429 168.694H260.661C260.661 169.701 260.409 170.332 259.438 171.122L264.341 177.148L269.243 183.173C273.723 179.528 276.196 174.524 276.196 168.694H268.429ZM264.341 177.148L259.501 171.072C258.708 171.704 256.715 172.636 252.284 172.636V180.404V188.172C258.477 188.172 264.523 186.934 269.181 183.223L264.341 177.148ZM252.284 180.404V172.636C250.257 172.636 248.663 172.463 247.436 172.193L245.771 179.781L244.106 187.368C246.667 187.93 249.415 188.172 252.284 188.172V180.404ZM245.771 179.781L247.259 172.157C245.623 171.838 243.764 171.386 241.669 170.787L239.535 178.256L237.401 185.725C239.833 186.42 242.131 186.985 244.283 187.405L245.771 179.781ZM239.535 178.256L241.579 170.762L239.292 170.139L237.248 177.633L235.205 185.127L237.491 185.75L239.535 178.256ZM237.248 177.633H245.016V168.417H237.248H229.481V177.633H237.248ZM237.248 168.417V176.185H243.831V168.417V160.649H237.248V168.417ZM243.831 168.417L236.425 170.761L238.157 176.235L245.563 173.891L252.969 171.547L251.237 166.074L243.831 168.417ZM278.428 178.187L272.936 183.68L273.024 183.768L273.116 183.854L278.428 178.187ZM276.28 146.938H284.048V139.17H276.28V146.938ZM272.054 146.938H264.286V154.705H272.054V146.938ZM272.054 142.919L269.169 135.706L264.286 137.66V142.919H272.054ZM273.44 142.364L270.983 134.995L270.767 135.067L270.555 135.152L273.44 142.364ZM276.35 141.187L279.824 148.134L280.86 147.616L281.7 146.818L276.35 141.187ZM278.567 137.722L271.397 134.734L271.359 134.826L271.323 134.918L278.567 137.722ZM280.854 130.724V122.956H274.944L273.367 128.651L280.854 130.724ZM287.297 130.724L295.059 130.413L294.761 122.956H287.297V130.724ZM287.713 141.117L279.952 141.428L280.25 148.885H287.713V141.117ZM297.622 141.117H305.389V133.349H297.622V141.117ZM297.622 146.938V154.705H305.389V146.938H297.622ZM287.852 146.938V139.17H280.084V146.938H287.852ZM288.06 170.634L280.363 171.684L280.363 171.684L288.06 170.634ZM288.822 172.644L283.707 178.49L284.09 178.825L284.513 179.107L288.822 172.644ZM297.206 171.951L304.575 169.495L302.013 161.807L294.441 164.692L297.206 171.951ZM298.661 176.316L303.591 182.319L307.719 178.928L306.03 173.86L298.661 176.316ZM292.91 179.088L295.204 186.509L295.204 186.509L292.91 179.088ZM285.219 180.266V172.498C284.255 172.498 283.727 172.385 283.508 172.318C283.321 172.261 283.481 172.276 283.741 172.52L278.428 178.187L273.116 183.854C276.614 187.134 281.17 188.034 285.219 188.034V180.266ZM278.428 178.187L283.921 172.694C284.183 172.957 284.234 173.156 284.202 173.058C284.158 172.922 284.048 172.482 284.048 171.605H276.28H268.513C268.513 175.675 269.492 180.236 272.936 183.68L278.428 178.187ZM276.28 171.605H284.048V146.938H276.28H268.513V171.605H276.28ZM276.28 146.938V139.17H272.054V146.938V154.705H276.28V146.938ZM272.054 146.938H279.822V142.919H272.054H264.286V146.938H272.054ZM272.054 142.919L274.939 150.131L276.325 149.577L273.44 142.364L270.555 135.152L269.169 135.706L272.054 142.919ZM273.44 142.364L275.896 149.734C277.269 149.276 278.593 148.75 279.824 148.134L276.35 141.187L272.876 134.239C272.444 134.455 271.827 134.714 270.983 134.995L273.44 142.364ZM276.35 141.187L281.7 146.818C283.609 145.004 284.926 142.813 285.811 140.526L278.567 137.722L271.323 134.918C271.1 135.495 270.938 135.614 271 135.555L276.35 141.187ZM278.567 137.722L285.737 140.71C286.612 138.61 287.474 135.922 288.34 132.797L280.854 130.724L273.367 128.651C272.57 131.531 271.908 133.508 271.397 134.734L278.567 137.722ZM280.854 130.724V138.492H287.297V130.724V122.956H280.854V130.724ZM287.297 130.724L279.536 131.034L279.952 141.428L287.713 141.117L295.475 140.807L295.059 130.413L287.297 130.724ZM287.713 141.117V148.885H297.622V141.117V133.349H287.713V141.117ZM297.622 141.117H289.854V146.938H297.622H305.389V141.117H297.622ZM297.622 146.938V139.17H287.852V146.938V154.705H297.622V146.938ZM287.852 146.938H280.084V165.299H287.852H295.62V146.938H287.852ZM287.852 165.299H280.084C280.084 167.828 280.145 170.086 280.363 171.684L288.06 170.634L295.756 169.585C295.697 169.15 295.62 167.851 295.62 165.299H287.852ZM288.06 170.634L280.363 171.684C280.481 172.548 280.687 173.589 281.091 174.654C281.477 175.672 282.224 177.193 283.707 178.49L288.822 172.644L293.937 166.798C295.05 167.772 295.485 168.796 295.617 169.144C295.767 169.539 295.777 169.738 295.756 169.585L288.06 170.634ZM288.822 172.644L284.513 179.107C287.006 180.769 289.827 180.827 291.039 180.827V173.06V165.292C290.809 165.292 290.868 165.274 291.119 165.321C291.255 165.346 291.504 165.401 291.825 165.517C292.144 165.632 292.609 165.833 293.131 166.181L288.822 172.644ZM291.039 173.06V180.827C294.111 180.827 297.108 180.301 299.971 179.21L297.206 171.951L294.441 164.692C293.424 165.079 292.309 165.292 291.039 165.292V173.06ZM297.206 171.951L289.837 174.407L291.292 178.773L298.661 176.316L306.03 173.86L304.575 169.495L297.206 171.951ZM298.661 176.316L293.73 170.314C293.538 170.472 292.695 171.024 290.616 171.666L292.91 179.088L295.204 186.509C298.206 185.581 301.197 184.286 303.591 182.319L298.661 176.316ZM292.91 179.088L290.616 171.666C288.797 172.228 287.006 172.498 285.219 172.498V180.266V188.034C288.605 188.034 291.941 187.518 295.204 186.509L292.91 179.088ZM301.862 175.069L300.729 167.384L294.094 168.363V175.069H301.862ZM306.089 174.445L307.223 182.13L313.857 181.151V174.445H306.089ZM306.089 148.393H313.857V142.641L308.356 140.963L306.089 148.393ZM302.001 147.145H294.233V152.897L299.734 154.575L302.001 147.145ZM302.001 141.741L300.98 134.04L294.233 134.935V141.741H302.001ZM313.503 140.216V132.449H312.99L312.482 132.516L313.503 140.216ZM313.711 140.216L318.371 134.002L316.3 132.449H313.711V140.216ZM315.651 141.672H323.419V137.788L320.312 135.457L315.651 141.672ZM315.651 143.335L323.414 143.615L323.419 143.475V143.335H315.651ZM315.443 149.086L307.68 148.805L307.389 156.853H315.443V149.086ZM315.651 149.086V156.853H321.406L323.082 151.347L315.651 149.086ZM317.868 145.413L323.836 150.386L323.876 150.338L323.915 150.289L317.868 145.413ZM322.233 141.741L326.125 148.463L326.152 148.448L326.179 148.432L322.233 141.741ZM330.825 140.632H338.593V135.831L334.299 133.684L330.825 140.632ZM330.825 152.689L326.165 158.903L338.593 168.224V152.689H330.825ZM328.4 151.372L325.585 158.612L325.649 158.637L325.715 158.661L328.4 151.372ZM320.64 151.58L322.942 158.999L323.058 158.963L323.172 158.923L320.64 151.58ZM317.452 153.035L312.973 146.689L309.685 149.01V153.035H317.452ZM317.452 174.445H309.685V181.539L316.749 182.181L317.452 174.445ZM325.074 175.138H332.842V168.045L325.777 167.402L325.074 175.138ZM325.074 179.642V187.41H332.842V179.642H325.074ZM301.862 179.642H294.094V187.41H301.862V179.642ZM301.862 175.069L302.996 182.754L307.223 182.13L306.089 174.445L304.955 166.761L300.729 167.384L301.862 175.069ZM306.089 174.445H313.857V148.393H306.089H298.321V174.445H306.089ZM306.089 148.393L308.356 140.963L304.268 139.716L302.001 147.145L299.734 154.575L303.822 155.822L306.089 148.393ZM302.001 147.145H309.769V141.741H302.001H294.233V147.145H302.001ZM302.001 141.741L303.021 149.441L314.523 147.917L313.503 140.216L312.482 132.516L300.98 134.04L302.001 141.741ZM313.503 140.216V147.984H313.711V140.216V132.449H313.503V140.216ZM313.711 140.216L309.05 146.431L310.99 147.886L315.651 141.672L320.312 135.457L318.371 134.002L313.711 140.216ZM315.651 141.672H307.883V143.335H315.651H323.419V141.672H315.651ZM315.651 143.335L307.888 143.054L307.68 148.805L315.443 149.086L323.206 149.366L323.414 143.615L315.651 143.335ZM315.443 149.086V156.853H315.651V149.086V141.318H315.443V149.086ZM315.651 149.086L323.082 151.347C323.012 151.577 322.97 151.596 323.097 151.386C323.22 151.183 323.448 150.851 323.836 150.386L317.868 145.413L311.901 140.44C310.446 142.186 308.975 144.341 308.22 146.824L315.651 149.086ZM317.868 145.413L323.915 150.289C324.412 149.672 325.111 149.051 326.125 148.463L322.233 141.741L318.341 135.018C315.845 136.463 313.634 138.29 311.822 140.537L317.868 145.413ZM322.233 141.741L326.179 148.432C326.793 148.07 327.372 147.915 328.054 147.915V140.147V132.379C324.578 132.379 321.277 133.287 318.287 135.05L322.233 141.741ZM328.054 140.147V147.915C328.323 147.915 328.391 147.935 328.308 147.92C328.236 147.907 327.867 147.838 327.351 147.58L330.825 140.632L334.299 133.684C332.086 132.578 329.76 132.379 328.054 132.379V140.147ZM330.825 140.632H323.057V152.689H330.825H338.593V140.632H330.825ZM330.825 152.689L335.486 146.474C334.136 145.462 332.661 144.664 331.086 144.083L328.4 151.372L325.715 158.661C325.894 158.727 326.036 158.806 326.165 158.903L330.825 152.689ZM328.4 151.372L331.216 144.132C329.154 143.331 327.01 143.119 325.144 143.119V150.887V158.655C325.511 158.655 325.726 158.678 325.818 158.691C325.914 158.706 325.814 158.701 325.585 158.612L328.4 151.372ZM325.144 150.887V143.119C322.765 143.119 320.389 143.45 318.107 144.236L320.64 151.58L323.172 158.923C323.569 158.786 324.196 158.655 325.144 158.655V150.887ZM320.64 151.58L318.337 144.161C316.544 144.718 314.652 145.503 312.973 146.689L317.452 153.035L321.932 159.381C321.857 159.434 321.882 159.405 322.064 159.322C322.243 159.24 322.527 159.128 322.942 158.999L320.64 151.58ZM317.452 153.035H309.685V174.445H317.452H325.22V153.035H317.452ZM317.452 174.445L316.749 182.181L324.371 182.874L325.074 175.138L325.777 167.402L318.156 166.709L317.452 174.445ZM325.074 175.138H317.306V179.642H325.074H332.842V175.138H325.074ZM325.074 179.642V171.874H301.862V179.642V187.41H325.074V179.642ZM301.862 179.642H309.63V175.069H301.862H294.094V179.642H301.862ZM338.826 196.687L337.776 204.384L337.799 204.387L337.821 204.39L338.826 196.687ZM336.609 196.133H328.841V200.934L333.135 203.081L336.609 196.133ZM336.609 187.818L341.124 181.497L328.841 172.724V187.818H336.609ZM338.687 188.442L340.338 180.851L340.179 180.817L340.018 180.789L338.687 188.442ZM351.021 179.642L358.312 182.323L362.153 171.874H351.021V179.642ZM347.002 179.642L339.764 182.462L341.692 187.41H347.002V179.642ZM334.045 146.383L341.283 143.563L339.863 139.918L336.089 138.889L334.045 146.383ZM330.996 145.552H323.228V151.485L328.952 153.046L330.996 145.552ZM330.996 141.117V133.349H323.228V141.117H330.996ZM351.437 141.117H359.204V133.349H351.437V141.117ZM351.437 145.552L352.749 153.208L359.204 152.101V145.552H351.437ZM346.586 146.383L345.274 138.727L336.528 140.226L339.171 148.697L346.586 146.383ZM352.337 164.814L359.784 162.602L359.769 162.551L359.753 162.5L352.337 164.814ZM354.416 171.812L346.97 174.024L355.25 201.902L361.973 173.608L354.416 171.812ZM356.079 164.814L348.615 162.662L348.564 162.839L348.522 163.018L356.079 164.814ZM361.414 146.314L368.878 148.466L371.256 140.221L362.815 138.673L361.414 146.314ZM357.257 145.552H349.489V152.025L355.856 153.192L357.257 145.552ZM357.257 141.117V133.349H349.489V141.117H357.257ZM372.916 141.117H380.684V133.349H372.916V141.117ZM372.916 145.552L374.651 153.123L380.684 151.741V145.552H372.916ZM369.59 146.314L367.855 138.742L363.566 139.725L362.204 143.909L369.59 146.314ZM362.454 167.309L355.123 164.739L355.117 164.758L355.11 164.776L362.454 167.309ZM357.811 180.474L350.695 177.36L350.593 177.593L350.506 177.833L357.811 180.474ZM353.585 189.689L346.983 185.596L346.935 185.673L346.889 185.751L353.585 189.689ZM348.665 195.024L344.505 188.464L344.449 188.5L344.393 188.537L348.665 195.024ZM341.875 196.895V189.127C341.273 189.127 340.594 189.084 339.831 188.985L338.826 196.687L337.821 204.39C339.183 204.567 340.536 204.663 341.875 204.663V196.895ZM338.826 196.687L339.876 188.991C339.724 188.97 339.608 188.951 339.523 188.935C339.437 188.92 339.396 188.91 339.393 188.909C339.388 188.908 339.445 188.921 339.548 188.957C339.648 188.991 339.837 189.062 340.083 189.185L336.609 196.133L333.135 203.081C334.786 203.906 336.578 204.22 337.776 204.384L338.826 196.687ZM336.609 196.133H344.377V187.818H336.609H328.841V196.133H336.609ZM336.609 187.818L332.094 194.139C333.302 195.002 334.53 195.405 335.139 195.588C335.887 195.812 336.653 195.972 337.356 196.095L338.687 188.442L340.018 180.789C339.659 180.726 339.548 180.691 339.603 180.707C339.636 180.717 339.782 180.762 340 180.856C340.198 180.941 340.62 181.137 341.124 181.497L336.609 187.818ZM338.687 188.442L337.037 196.032C338.519 196.355 340.052 196.556 341.598 196.556V188.788V181.02C341.388 181.02 340.981 180.991 340.338 180.851L338.687 188.442ZM341.598 188.788V196.556C345.719 196.556 349.781 195.186 352.877 191.884L347.21 186.571L341.543 181.258C341.575 181.224 341.631 181.173 341.708 181.12C341.785 181.067 341.858 181.031 341.913 181.009C342.028 180.964 341.963 181.02 341.598 181.02V188.788ZM347.21 186.571L352.877 191.884C355.291 189.309 357.002 185.886 358.312 182.323L351.021 179.642L343.73 176.962C342.73 179.681 341.9 180.877 341.543 181.258L347.21 186.571ZM351.021 179.642V171.874H347.002V179.642V187.41H351.021V179.642ZM347.002 179.642L354.24 176.822L341.283 143.563L334.045 146.383L326.807 149.203L339.764 182.462L347.002 179.642ZM334.045 146.383L336.089 138.889L333.04 138.058L330.996 145.552L328.952 153.046L332.001 153.877L334.045 146.383ZM330.996 145.552H338.764V141.117H330.996H323.228V145.552H330.996ZM330.996 141.117V148.885H351.437V141.117V133.349H330.996V141.117ZM351.437 141.117H343.669V145.552H351.437H359.204V141.117H351.437ZM351.437 145.552L350.124 137.896L345.274 138.727L346.586 146.383L347.899 154.039L352.749 153.208L351.437 145.552ZM346.586 146.383L339.171 148.697L344.922 167.128L352.337 164.814L359.753 162.5L354.002 144.069L346.586 146.383ZM352.337 164.814L344.891 167.026L346.97 174.024L354.416 171.812L361.862 169.601L359.784 162.602L352.337 164.814ZM354.416 171.812L361.973 173.608L363.636 166.61L356.079 164.814L348.522 163.018L346.859 170.017L354.416 171.812ZM356.079 164.814L363.543 166.967L368.878 148.466L361.414 146.314L353.951 144.161L348.615 162.662L356.079 164.814ZM361.414 146.314L362.815 138.673L358.658 137.911L357.257 145.552L355.856 153.192L360.014 153.954L361.414 146.314ZM357.257 145.552H365.025V141.117H357.257H349.489V145.552H357.257ZM357.257 141.117V148.885H372.916V141.117V133.349H357.257V141.117ZM372.916 141.117H365.148V145.552H372.916H380.684V141.117H372.916ZM372.916 145.552L371.181 137.98L367.855 138.742L369.59 146.314L371.326 153.886L374.651 153.123L372.916 145.552ZM369.59 146.314L362.204 143.909C360.287 149.797 357.928 156.738 355.123 164.739L362.454 167.309L369.784 169.878C372.615 161.804 375.014 154.748 376.977 148.719L369.59 146.314ZM362.454 167.309L355.11 164.776C353.726 168.79 352.653 171.876 351.889 174.045C351.506 175.131 351.206 175.97 350.986 176.572C350.731 177.272 350.659 177.441 350.695 177.36L357.811 180.474L364.928 183.587C365.416 182.472 367.116 177.615 369.797 169.841L362.454 167.309ZM357.811 180.474L350.506 177.833C349.222 181.385 348.027 183.911 346.983 185.596L353.585 189.689L360.187 193.782C362.006 190.848 363.629 187.23 365.117 183.114L357.811 180.474ZM353.585 189.689L346.889 185.751C345.994 187.273 345.154 188.053 344.505 188.464L348.665 195.024L352.825 201.584C355.964 199.594 358.404 196.817 360.28 193.627L353.585 189.689ZM348.665 195.024L344.393 188.537C343.961 188.821 343.24 189.127 341.875 189.127V196.895V204.663C345.776 204.663 349.581 203.722 352.937 201.512L348.665 195.024Z" fill="url(#paint0_linear_54_90)" mask="url(#path-16-outside-1_54_90)"/>
<defs>
<linearGradient id="paint0_linear_54_90" x1="0" y1="155.142" x2="379.071" y2="155.142" gradientUnits="userSpaceOnUse">
<stop offset="0.0817308" stop-color="#FF4400"/>
<stop offset="0.396635" stop-color="#E63D00"/>
<stop offset="0.711538" stop-color="#CC3600"/>
<stop offset="1" stop-color="#992900"/>
</linearGradient>
<clipPath id="clip0_54_90">
<rect width="97.0799" height="98.4038" fill="white" transform="translate(140.996)"/>
</clipPath>
<clipPath id="clip1_54_90">
<rect width="88.2545" height="88.2545" fill="white" transform="translate(145.408 5.29492)"/>
</clipPath>
</defs>
</svg>
