<svg width="478" height="94" viewBox="0 0 478 94" fill="none" xmlns="http://www.w3.org/2000/svg">
<g clip-path="url(#clip0_54_256)">
<g clip-path="url(#clip1_54_256)">
<path d="M81.5626 69.8437V72.4016C81.5626 77.9973 77.0263 82.5336 71.4306 82.5336H42.7233H14.016C8.42029 82.5336 3.88403 77.9973 3.88403 72.4016V69.8437C3.88403 67.1566 4.95144 64.5795 6.85169 62.6792L29.214 40.3169V16.3862C27.2465 15.6906 25.8367 13.8152 25.8367 11.6096V9.92097C25.8367 7.12303 28.1047 4.85498 30.9027 4.85498H42.7233H54.544C57.3419 4.85498 59.61 7.12303 59.61 9.92097V11.6096C59.61 13.8152 58.1999 15.6906 56.2326 16.3862V40.3169L78.5949 62.6792C80.4952 64.5793 81.5626 67.1564 81.5626 69.8437Z" fill="#C9C9C9"/>
<path d="M42.7234 55.5147C39.1583 55.5147 36.4198 52.8083 36.924 49.7832L37.6574 45.3827L39.3461 23.4301V20.0527H46.1007V23.4301L47.7894 45.3827L48.5228 49.7832C49.027 52.8083 46.2885 55.5147 42.7234 55.5147Z" fill="#D6D6D6"/>
<path d="M75.9935 71.0588V71.3828C75.9935 73.7796 74.0507 75.7224 71.654 75.7224H42.7234H13.7929C11.3962 75.7224 9.45337 73.7796 9.45337 71.3828V71.0588C9.45337 69.9078 9.91049 68.8041 10.7244 67.9903L32.5269 46.3624C33.1595 45.7349 34.0145 45.3828 34.9054 45.3828H42.7234H50.5413C51.4324 45.3828 52.2872 45.7349 52.9198 46.3624L74.7223 67.9903C75.5362 68.8041 75.9935 69.9078 75.9935 71.0588Z" fill="#FF4400"/>
<path d="M56.2327 16.6753V23.43H29.2141V16.6753H35.9688H49.4781H56.2327Z" fill="#BABABA"/>
<path d="M35.9687 40.3169L25.8367 82.5336H14.016C8.42029 82.5336 3.88403 77.9973 3.88403 72.4016V69.8437C3.88403 67.1566 4.95144 64.5795 6.85169 62.6792L29.214 40.3169V16.3862C27.2465 15.6906 25.8367 13.8152 25.8367 11.6096V9.92097C25.8367 7.12303 28.1047 4.85498 30.9027 4.85498H35.9687V40.3169Z" fill="#B7B7B7"/>
<path d="M35.9688 23.43L29.2141 16.6753H35.9688V23.43Z" fill="#A3A3A3"/>
<path d="M81.5627 69.8437V72.4016C81.5627 77.9973 77.0264 82.5336 71.4307 82.5336H59.61L49.478 40.3169V4.85498H54.544C57.342 4.85498 59.61 7.12303 59.61 9.92097V11.6096C59.61 13.8152 58.2 15.6906 56.2327 16.3862V40.3169L78.595 62.6792C80.4953 64.5793 81.5627 67.1564 81.5627 69.8437Z" fill="#A0A0A0"/>
<path d="M49.478 16.6753H56.2327L49.478 23.43V16.6753Z" fill="#919191"/>
<path d="M19.8961 58.8921H65.5508L74.7225 67.9903C75.5362 68.804 75.9935 69.9079 75.9935 71.0588V71.3828C75.9935 73.7795 74.0507 75.7223 71.654 75.7223H42.7234H13.7929C11.3962 75.7223 9.45337 73.7795 9.45337 71.3828V71.0588C9.45337 69.9078 9.91049 68.804 10.7244 67.9903L19.8961 58.8921Z" fill="#FF4400"/>
<path d="M31.5105 58.8921L27.4713 75.7225H13.7929C11.3962 75.7225 9.45337 73.7797 9.45337 71.383V71.0589C9.45337 69.9079 9.91066 68.8042 10.7244 67.9904L19.8959 58.8921H31.5105Z" fill="#FF4400"/>
<path d="M75.9936 71.0587V71.3828C75.9936 73.7795 74.0508 75.7223 71.6541 75.7223H57.9756L53.9363 58.8921H65.5509L74.7226 67.9903C75.5363 68.804 75.9936 69.9078 75.9936 71.0587Z" fill="#FF4400"/>
<path d="M67.2533 60.5808H54.3416H42.7236H31.1055H18.1938L32.5271 46.3624C33.1596 45.7349 34.0146 45.3828 34.9055 45.3828H37.6576L36.9242 49.7833C36.4199 52.8084 39.1584 55.5148 42.7236 55.5148C46.2887 55.5148 49.0272 52.8084 48.5229 49.7833L47.7895 45.3828H50.5414C51.4325 45.3828 52.2873 45.7349 52.9199 46.3624L67.2533 60.5808Z" fill="#FF5E24"/>
<path d="M34.751 45.3904L31.1054 60.5808H18.1938L32.5271 46.3624C33.1596 45.7349 34.0146 45.3828 34.9055 45.3828C34.8535 45.3828 34.8025 45.388 34.751 45.3904Z" fill="#E53D00"/>
<path d="M67.2532 60.5808H54.3415L50.6958 45.3904C50.6443 45.388 50.5932 45.3828 50.5415 45.3828C51.4326 45.3828 52.2874 45.7349 52.92 46.3624L67.2532 60.5808Z" fill="#E53D00"/>
</g>
<path d="M3.88403 68.3572L5.04921 64.8617L29.3238 40.1987V16.5068L28.1586 15.9242L27.3818 15.3416L26.2166 13.788L25.8282 12.2344V9.3215L26.4108 7.37953L27.7702 5.82596L29.1296 5.04918L30.3952 4.85498H47.1898H54.5693L55.9287 5.04918L57.6764 6.02016L59.23 7.57373L59.6184 9.51569V12.4286L59.23 13.788L58.0648 15.3416L56.3171 16.701L56.1229 40.1987L75.7367 59.6184L79.6206 63.5023L80.3974 65.2501L81.1742 66.8036L81.5626 68.9398L81.3684 74.7657L80.009 78.067L77.6787 80.5916L73.9889 82.3393L71.6586 82.7277H13.2055L11.4577 82.3393L9.12734 81.3684L6.40859 79.2322L4.66082 76.5135L3.88403 73.9889V68.3572Z" stroke="white" stroke-width="7.76786"/>
</g>
<mask id="path-16-outside-1_54_256" maskUnits="userSpaceOnUse" x="98.0981" y="3" width="380" height="91" fill="black">
<rect fill="white" x="98.0981" y="3" width="380" height="91"/>
<path d="M130.536 68.7622C122.545 68.7622 116.471 66.4525 112.313 61.8333C108.156 57.1678 106.077 50.7932 106.077 42.7094C106.077 37.2587 107.186 32.5239 109.403 28.5051C111.62 24.4401 114.669 21.3452 118.549 19.2203C122.43 17.0493 126.818 15.9637 131.714 15.9637C133.654 15.9637 135.525 16.0792 137.327 16.3102C139.128 16.495 141.299 16.7721 143.84 17.1417C145.826 17.465 147.189 17.6498 147.928 17.696L147.097 33.1475H139.683L137.327 22.5462C136.311 21.4376 134.186 20.8833 130.952 20.8833C127.395 20.8833 124.578 22.6617 122.499 26.2186C120.466 29.7292 119.45 34.9028 119.45 41.7394C119.45 48.3911 120.443 53.7264 122.43 57.7452C124.462 61.764 127.395 63.7734 131.229 63.7734C133.123 63.7734 134.555 63.5886 135.525 63.219C136.542 62.8495 137.396 62.3183 138.089 61.6254L141.207 54.2114L147.997 54.835L146.75 66.1292C145.411 66.2216 143.771 66.568 141.831 67.1685C139.983 67.6767 138.228 68.0693 136.565 68.3464C134.948 68.6236 132.939 68.7622 130.536 68.7622ZM156.181 17.9731L151.262 17.0724V12.8457L165.189 11.1828H165.397L167.406 12.6379L167.475 27.6736L166.921 33.8404C168.353 32.5008 170.247 31.3229 172.603 30.3066C174.958 29.2442 177.545 28.713 180.363 28.713C183.273 28.713 185.537 29.2442 187.153 30.3066C188.77 31.3691 189.902 32.9858 190.549 35.1569C191.195 37.3279 191.519 40.215 191.519 43.818V62.8033L195.745 63.4269V68H176.483V63.4269L180.155 62.8033V43.8873C180.155 40.6538 179.809 38.4135 179.116 37.1663C178.423 35.8729 177.014 35.2262 174.889 35.2262C173.596 35.2262 172.302 35.5264 171.009 36.1269C169.716 36.6812 168.63 37.3741 167.752 38.2056V62.8033L171.563 63.4269V68H152.578V63.4269L156.181 62.8033V17.9731ZM217.832 68.7622C211.503 68.7622 206.815 66.9838 203.766 63.4269C200.717 59.8239 199.193 54.9274 199.193 48.7376C199.193 44.534 199.978 40.9079 201.549 37.8592C203.119 34.8104 205.314 32.5008 208.131 30.9302C210.995 29.3135 214.344 28.5051 218.178 28.5051C223.028 28.5051 226.724 29.7292 229.265 32.1774C231.851 34.6257 233.191 38.0901 233.283 42.5708C233.283 45.5272 233.075 47.9061 232.66 49.7076H210.972C211.203 53.634 212.15 56.6366 213.813 58.7152C215.522 60.7477 217.901 61.764 220.95 61.764C222.659 61.764 224.437 61.4868 226.285 60.9325C228.179 60.332 229.703 59.6622 230.858 58.9231L232.798 63.1498C231.597 64.4893 229.542 65.7596 226.632 66.9607C223.768 68.1617 220.834 68.7622 217.832 68.7622ZM222.266 45.1345L222.336 42.2244C222.336 39.3142 221.943 37.097 221.158 35.5726C220.372 34.0482 219.033 33.2861 217.139 33.2861C215.199 33.2861 213.698 34.1406 212.635 35.8498C211.573 37.5127 210.995 40.6076 210.903 45.1345H222.266ZM238.529 63.4269L242.202 62.8033V36.7505L238.113 35.5033V30.0988L250.724 28.5744L251.278 28.8516L252.664 30.7917V34.2561C254.142 32.7318 256.313 31.4384 259.177 30.3759C262.041 29.2673 264.49 28.713 266.522 28.713C269.017 28.713 271.026 29.1287 272.55 29.9602C274.121 30.7917 275.299 32.0851 276.084 33.8404C277.655 32.3622 279.618 31.1381 281.974 30.1681C284.376 29.198 286.801 28.713 289.249 28.713C293.314 28.713 296.224 29.8909 297.979 32.2467C299.781 34.6026 300.682 38.4597 300.682 43.818V62.8033L304.839 63.4269V68H286.062V63.4269L289.18 62.8033V44.0952C289.18 40.7693 288.787 38.4597 288.002 37.1663C287.263 35.8729 285.877 35.2262 283.844 35.2262C281.72 35.2262 279.502 36.1269 277.193 37.9284C277.47 39.6376 277.608 41.6008 277.608 43.818V62.8033L281.489 63.4269V68H262.573V63.4269L266.037 62.8033V43.8873C266.037 40.6076 265.668 38.3442 264.928 37.097C264.236 35.8498 262.896 35.2262 260.91 35.2262C259.616 35.2262 258.323 35.5264 257.029 36.1269C255.782 36.6812 254.697 37.3741 253.773 38.2056V62.8033L257.514 63.4269V68H238.529V63.4269ZM317.756 23.5163C315.954 23.5163 314.499 22.9851 313.39 21.9226C312.282 20.8602 311.727 19.4975 311.727 17.8346C311.727 15.8945 312.328 14.3008 313.529 13.0536C314.776 11.8064 316.439 11.1828 318.518 11.1828C320.596 11.1828 322.19 11.714 323.299 12.7764C324.407 13.8389 324.962 15.2016 324.962 16.8645C324.962 18.8508 324.338 20.4675 323.091 21.7148C321.844 22.9158 320.088 23.5163 317.825 23.5163H317.756ZM313.529 36.7505L308.887 35.434V30.2373L322.744 28.5744H322.883L325.031 30.0295V62.8033L329.188 63.4269V68H309.233V63.4269L313.529 62.8033V36.7505ZM342.661 62.249C342.985 62.7571 343.724 63.219 344.879 63.6348C346.08 64.0505 347.281 64.2584 348.482 64.2584C350.375 64.2584 351.807 63.8657 352.778 63.0805C353.794 62.249 354.302 61.1866 354.302 59.8932C354.302 58.5074 353.655 57.3756 352.362 56.498C351.068 55.5741 348.944 54.4655 345.987 53.1721L343.354 51.9942C340.352 50.6546 338.088 49.0378 336.564 47.1439C335.086 45.2038 334.347 42.7556 334.347 39.7993C334.347 37.6744 334.97 35.7805 336.217 34.1175C337.465 32.4084 339.266 31.0688 341.622 30.0988C343.978 29.1287 346.749 28.6437 349.937 28.6437C352.154 28.6437 354.071 28.7823 355.688 29.0594C357.304 29.3366 358.944 29.683 360.607 30.0988C361.716 30.4221 362.547 30.6069 363.102 30.6531V40.0764H356.935L355.133 34.7411C354.902 34.3254 354.348 33.9559 353.47 33.6325C352.593 33.263 351.6 33.0782 350.491 33.0782C348.736 33.0782 347.35 33.4708 346.334 34.2561C345.317 34.9952 344.809 36.0114 344.809 37.3048C344.809 38.783 345.387 39.9609 346.541 40.8386C347.696 41.6701 349.544 42.6632 352.085 43.818L353.54 44.4416C357.281 46.0122 360.215 47.7213 362.339 49.5691C364.464 51.3706 365.527 53.865 365.527 57.0523C365.527 60.4706 364.164 63.2883 361.439 65.5056C358.713 67.6766 354.695 68.7622 349.382 68.7622C346.934 68.7622 344.763 68.5543 342.869 68.1386C340.975 67.769 338.897 67.2609 336.633 66.6142L334.347 65.9906V56.7751H340.929L342.661 62.249ZM382.317 68.6236C379.268 68.6236 377.005 67.9307 375.527 66.5449C374.095 65.1129 373.379 62.9188 373.379 59.9624V35.2955H369.152V31.2767L370.538 30.7224C371.646 30.3528 372.616 29.9602 373.448 29.5444C374.372 28.6668 375.111 27.512 375.665 26.08C376.358 24.417 377.12 22.0843 377.952 19.0818H384.396L384.811 29.4752H394.72V35.2955H384.95V53.6571C384.95 56.1977 385.019 57.9761 385.158 58.9924C385.296 60.0086 385.55 60.6784 385.92 61.0018C386.336 61.2789 387.075 61.4175 388.137 61.4175C390.308 61.4175 392.364 61.048 394.304 60.3089L395.759 64.6741C394.466 65.7366 392.549 66.6604 390.008 67.4457C387.467 68.231 384.904 68.6236 382.317 68.6236ZM398.96 63.4269L403.187 62.8033V36.7505L399.099 35.5033V30.0988L410.601 28.5744H410.809L412.749 30.0295V31.6924L412.541 37.4434H412.749C413.072 36.381 413.811 35.1569 414.966 33.7711C416.121 32.3391 417.576 31.115 419.332 30.0988C421.133 29.0363 423.073 28.5051 425.152 28.5051C426.353 28.5051 427.277 28.6668 427.923 28.9901V41.0465C427.184 40.4922 426.376 40.0533 425.498 39.73C424.667 39.4066 423.581 39.2449 422.242 39.2449C420.579 39.2449 419.077 39.4759 417.738 39.9378C416.398 40.3536 415.336 40.8386 414.551 41.3929V62.8033L422.172 63.4962V68H398.96V63.4269ZM438.973 85.253C438.003 85.253 436.987 85.1837 435.924 85.0452C434.908 84.9066 434.169 84.7218 433.707 84.4908V76.1761C434.03 76.4071 434.723 76.615 435.786 76.7997C436.848 77.0307 437.818 77.1462 438.696 77.1462C441.052 77.1462 442.922 76.4071 444.308 74.9289C445.694 73.4508 446.964 71.1411 448.119 68H444.1L431.143 34.7411L428.094 33.9097V29.4752H448.535V33.9097L443.685 34.7411L449.436 53.1721L451.514 60.1703L453.177 53.1721L458.512 34.6719L454.355 33.9097V29.4752H470.014V33.9097L466.689 34.6719C464.748 40.6307 462.37 47.6289 459.552 55.6665C456.78 63.7041 455.233 68.0924 454.909 68.8315C453.524 72.6655 452.115 75.7373 450.683 78.0469C449.297 80.4028 447.657 82.1812 445.763 83.3822C443.869 84.6294 441.606 85.253 438.973 85.253Z"/>
</mask>
<path d="M130.536 68.7622C122.545 68.7622 116.471 66.4525 112.313 61.8333C108.156 57.1678 106.077 50.7932 106.077 42.7094C106.077 37.2587 107.186 32.5239 109.403 28.5051C111.62 24.4401 114.669 21.3452 118.549 19.2203C122.43 17.0493 126.818 15.9637 131.714 15.9637C133.654 15.9637 135.525 16.0792 137.327 16.3102C139.128 16.495 141.299 16.7721 143.84 17.1417C145.826 17.465 147.189 17.6498 147.928 17.696L147.097 33.1475H139.683L137.327 22.5462C136.311 21.4376 134.186 20.8833 130.952 20.8833C127.395 20.8833 124.578 22.6617 122.499 26.2186C120.466 29.7292 119.45 34.9028 119.45 41.7394C119.45 48.3911 120.443 53.7264 122.43 57.7452C124.462 61.764 127.395 63.7734 131.229 63.7734C133.123 63.7734 134.555 63.5886 135.525 63.219C136.542 62.8495 137.396 62.3183 138.089 61.6254L141.207 54.2114L147.997 54.835L146.75 66.1292C145.411 66.2216 143.771 66.568 141.831 67.1685C139.983 67.6767 138.228 68.0693 136.565 68.3464C134.948 68.6236 132.939 68.7622 130.536 68.7622ZM156.181 17.9731L151.262 17.0724V12.8457L165.189 11.1828H165.397L167.406 12.6379L167.475 27.6736L166.921 33.8404C168.353 32.5008 170.247 31.3229 172.603 30.3066C174.958 29.2442 177.545 28.713 180.363 28.713C183.273 28.713 185.537 29.2442 187.153 30.3066C188.77 31.3691 189.902 32.9858 190.549 35.1569C191.195 37.3279 191.519 40.215 191.519 43.818V62.8033L195.745 63.4269V68H176.483V63.4269L180.155 62.8033V43.8873C180.155 40.6538 179.809 38.4135 179.116 37.1663C178.423 35.8729 177.014 35.2262 174.889 35.2262C173.596 35.2262 172.302 35.5264 171.009 36.1269C169.716 36.6812 168.63 37.3741 167.752 38.2056V62.8033L171.563 63.4269V68H152.578V63.4269L156.181 62.8033V17.9731ZM217.832 68.7622C211.503 68.7622 206.815 66.9838 203.766 63.4269C200.717 59.8239 199.193 54.9274 199.193 48.7376C199.193 44.534 199.978 40.9079 201.549 37.8592C203.119 34.8104 205.314 32.5008 208.131 30.9302C210.995 29.3135 214.344 28.5051 218.178 28.5051C223.028 28.5051 226.724 29.7292 229.265 32.1774C231.851 34.6257 233.191 38.0901 233.283 42.5708C233.283 45.5272 233.075 47.9061 232.66 49.7076H210.972C211.203 53.634 212.15 56.6366 213.813 58.7152C215.522 60.7477 217.901 61.764 220.95 61.764C222.659 61.764 224.437 61.4868 226.285 60.9325C228.179 60.332 229.703 59.6622 230.858 58.9231L232.798 63.1498C231.597 64.4893 229.542 65.7596 226.632 66.9607C223.768 68.1617 220.834 68.7622 217.832 68.7622ZM222.266 45.1345L222.336 42.2244C222.336 39.3142 221.943 37.097 221.158 35.5726C220.372 34.0482 219.033 33.2861 217.139 33.2861C215.199 33.2861 213.698 34.1406 212.635 35.8498C211.573 37.5127 210.995 40.6076 210.903 45.1345H222.266ZM238.529 63.4269L242.202 62.8033V36.7505L238.113 35.5033V30.0988L250.724 28.5744L251.278 28.8516L252.664 30.7917V34.2561C254.142 32.7318 256.313 31.4384 259.177 30.3759C262.041 29.2673 264.49 28.713 266.522 28.713C269.017 28.713 271.026 29.1287 272.55 29.9602C274.121 30.7917 275.299 32.0851 276.084 33.8404C277.655 32.3622 279.618 31.1381 281.974 30.1681C284.376 29.198 286.801 28.713 289.249 28.713C293.314 28.713 296.224 29.8909 297.979 32.2467C299.781 34.6026 300.682 38.4597 300.682 43.818V62.8033L304.839 63.4269V68H286.062V63.4269L289.18 62.8033V44.0952C289.18 40.7693 288.787 38.4597 288.002 37.1663C287.263 35.8729 285.877 35.2262 283.844 35.2262C281.72 35.2262 279.502 36.1269 277.193 37.9284C277.47 39.6376 277.608 41.6008 277.608 43.818V62.8033L281.489 63.4269V68H262.573V63.4269L266.037 62.8033V43.8873C266.037 40.6076 265.668 38.3442 264.928 37.097C264.236 35.8498 262.896 35.2262 260.91 35.2262C259.616 35.2262 258.323 35.5264 257.029 36.1269C255.782 36.6812 254.697 37.3741 253.773 38.2056V62.8033L257.514 63.4269V68H238.529V63.4269ZM317.756 23.5163C315.954 23.5163 314.499 22.9851 313.39 21.9226C312.282 20.8602 311.727 19.4975 311.727 17.8346C311.727 15.8945 312.328 14.3008 313.529 13.0536C314.776 11.8064 316.439 11.1828 318.518 11.1828C320.596 11.1828 322.19 11.714 323.299 12.7764C324.407 13.8389 324.962 15.2016 324.962 16.8645C324.962 18.8508 324.338 20.4675 323.091 21.7148C321.844 22.9158 320.088 23.5163 317.825 23.5163H317.756ZM313.529 36.7505L308.887 35.434V30.2373L322.744 28.5744H322.883L325.031 30.0295V62.8033L329.188 63.4269V68H309.233V63.4269L313.529 62.8033V36.7505ZM342.661 62.249C342.985 62.7571 343.724 63.219 344.879 63.6348C346.08 64.0505 347.281 64.2584 348.482 64.2584C350.375 64.2584 351.807 63.8657 352.778 63.0805C353.794 62.249 354.302 61.1866 354.302 59.8932C354.302 58.5074 353.655 57.3756 352.362 56.498C351.068 55.5741 348.944 54.4655 345.987 53.1721L343.354 51.9942C340.352 50.6546 338.088 49.0378 336.564 47.1439C335.086 45.2038 334.347 42.7556 334.347 39.7993C334.347 37.6744 334.97 35.7805 336.217 34.1175C337.465 32.4084 339.266 31.0688 341.622 30.0988C343.978 29.1287 346.749 28.6437 349.937 28.6437C352.154 28.6437 354.071 28.7823 355.688 29.0594C357.304 29.3366 358.944 29.683 360.607 30.0988C361.716 30.4221 362.547 30.6069 363.102 30.6531V40.0764H356.935L355.133 34.7411C354.902 34.3254 354.348 33.9559 353.47 33.6325C352.593 33.263 351.6 33.0782 350.491 33.0782C348.736 33.0782 347.35 33.4708 346.334 34.2561C345.317 34.9952 344.809 36.0114 344.809 37.3048C344.809 38.783 345.387 39.9609 346.541 40.8386C347.696 41.6701 349.544 42.6632 352.085 43.818L353.54 44.4416C357.281 46.0122 360.215 47.7213 362.339 49.5691C364.464 51.3706 365.527 53.865 365.527 57.0523C365.527 60.4706 364.164 63.2883 361.439 65.5056C358.713 67.6766 354.695 68.7622 349.382 68.7622C346.934 68.7622 344.763 68.5543 342.869 68.1386C340.975 67.769 338.897 67.2609 336.633 66.6142L334.347 65.9906V56.7751H340.929L342.661 62.249ZM382.317 68.6236C379.268 68.6236 377.005 67.9307 375.527 66.5449C374.095 65.1129 373.379 62.9188 373.379 59.9624V35.2955H369.152V31.2767L370.538 30.7224C371.646 30.3528 372.616 29.9602 373.448 29.5444C374.372 28.6668 375.111 27.512 375.665 26.08C376.358 24.417 377.12 22.0843 377.952 19.0818H384.396L384.811 29.4752H394.72V35.2955H384.95V53.6571C384.95 56.1977 385.019 57.9761 385.158 58.9924C385.296 60.0086 385.55 60.6784 385.92 61.0018C386.336 61.2789 387.075 61.4175 388.137 61.4175C390.308 61.4175 392.364 61.048 394.304 60.3089L395.759 64.6741C394.466 65.7366 392.549 66.6604 390.008 67.4457C387.467 68.231 384.904 68.6236 382.317 68.6236ZM398.96 63.4269L403.187 62.8033V36.7505L399.099 35.5033V30.0988L410.601 28.5744H410.809L412.749 30.0295V31.6924L412.541 37.4434H412.749C413.072 36.381 413.811 35.1569 414.966 33.7711C416.121 32.3391 417.576 31.115 419.332 30.0988C421.133 29.0363 423.073 28.5051 425.152 28.5051C426.353 28.5051 427.277 28.6668 427.923 28.9901V41.0465C427.184 40.4922 426.376 40.0533 425.498 39.73C424.667 39.4066 423.581 39.2449 422.242 39.2449C420.579 39.2449 419.077 39.4759 417.738 39.9378C416.398 40.3536 415.336 40.8386 414.551 41.3929V62.8033L422.172 63.4962V68H398.96V63.4269ZM438.973 85.253C438.003 85.253 436.987 85.1837 435.924 85.0452C434.908 84.9066 434.169 84.7218 433.707 84.4908V76.1761C434.03 76.4071 434.723 76.615 435.786 76.7997C436.848 77.0307 437.818 77.1462 438.696 77.1462C441.052 77.1462 442.922 76.4071 444.308 74.9289C445.694 73.4508 446.964 71.1411 448.119 68H444.1L431.143 34.7411L428.094 33.9097V29.4752H448.535V33.9097L443.685 34.7411L449.436 53.1721L451.514 60.1703L453.177 53.1721L458.512 34.6719L454.355 33.9097V29.4752H470.014V33.9097L466.689 34.6719C464.748 40.6307 462.37 47.6289 459.552 55.6665C456.78 63.7041 455.233 68.0924 454.909 68.8315C453.524 72.6655 452.115 75.7373 450.683 78.0469C449.297 80.4028 447.657 82.1812 445.763 83.3822C443.869 84.6294 441.606 85.253 438.973 85.253Z" fill="white"/>
<path d="M112.313 61.8333L106.514 67.0011L106.527 67.0154L106.54 67.0297L112.313 61.8333ZM109.403 28.5051L116.205 32.2576L116.214 32.2412L116.223 32.2248L109.403 28.5051ZM118.549 19.2203L122.28 26.0335L122.311 26.0165L122.342 25.9992L118.549 19.2203ZM137.327 16.3102L136.339 24.015L136.437 24.0275L136.534 24.0375L137.327 16.3102ZM143.84 17.1417L145.088 9.47473L145.023 9.46416L144.958 9.4547L143.84 17.1417ZM147.928 17.696L155.685 18.1134L156.099 10.4236L148.413 9.94325L147.928 17.696ZM147.097 33.1475V40.9153H154.458L154.853 33.5649L147.097 33.1475ZM139.683 33.1475L132.1 34.8326L133.452 40.9153H139.683V33.1475ZM137.327 22.5462L144.91 20.8611L144.458 18.8306L143.053 17.2973L137.327 22.5462ZM122.499 26.2186L115.792 22.2991L115.784 22.3128L115.776 22.3266L122.499 26.2186ZM122.43 57.7452L115.466 61.187L115.482 61.219L115.498 61.2509L122.43 57.7452ZM135.525 63.219L132.871 55.9189L132.815 55.939L132.76 55.9601L135.525 63.219ZM138.089 61.6254L143.582 67.1181L144.659 66.0409L145.249 64.6368L138.089 61.6254ZM141.207 54.2114L141.917 46.4761L136.252 45.9558L134.047 51.2001L141.207 54.2114ZM147.997 54.835L155.718 55.6877L156.587 47.8233L148.708 47.0997L147.997 54.835ZM146.75 66.1292L147.285 73.8786L153.759 73.4321L154.471 66.9818L146.75 66.1292ZM141.831 67.1685L143.89 74.6583L144.009 74.6256L144.127 74.5891L141.831 67.1685ZM136.565 68.3464L135.288 60.6843L135.27 60.6872L135.252 60.6903L136.565 68.3464ZM130.536 68.7622V60.9943C124.077 60.9943 120.376 59.1799 118.087 56.6368L112.313 61.8333L106.54 67.0297C112.566 73.7252 121.013 76.53 130.536 76.53V68.7622ZM112.313 61.8333L118.113 56.6654C115.559 53.8 113.845 49.4617 113.845 42.7094H106.077H98.3095C98.3095 52.1246 100.753 60.5356 106.514 67.0011L112.313 61.8333ZM106.077 42.7094H113.845C113.845 38.3248 114.731 34.9294 116.205 32.2576L109.403 28.5051L102.602 24.7526C99.6415 30.1184 98.3095 36.1925 98.3095 42.7094H106.077ZM109.403 28.5051L116.223 32.2248C117.763 29.4013 119.767 27.4098 122.28 26.0335L118.549 19.2203L114.818 12.4072C109.571 15.2806 105.478 19.479 102.584 24.7854L109.403 28.5051ZM118.549 19.2203L122.342 25.9992C124.949 24.5407 128.008 23.7316 131.714 23.7316V15.9637V8.19589C125.628 8.19589 119.91 9.55785 114.756 12.4415L118.549 19.2203ZM131.714 15.9637V23.7316C133.346 23.7316 134.886 23.8288 136.339 24.015L137.327 16.3102L138.315 8.6054C136.164 8.3297 133.963 8.19589 131.714 8.19589V15.9637ZM137.327 16.3102L136.534 24.0375C138.193 24.2076 140.249 24.4689 142.722 24.8286L143.84 17.1417L144.958 9.4547C142.35 9.07532 140.064 8.78232 138.119 8.58287L137.327 16.3102ZM143.84 17.1417L142.592 24.8086C144.543 25.1262 146.267 25.3751 147.444 25.4487L147.928 17.696L148.413 9.94325C148.111 9.92442 147.11 9.80381 145.088 9.47473L143.84 17.1417ZM147.928 17.696L140.171 17.2786L139.34 32.7301L147.097 33.1475L154.853 33.5649L155.685 18.1134L147.928 17.696ZM147.097 33.1475V25.3796H139.683V33.1475V40.9153H147.097V33.1475ZM139.683 33.1475L147.266 31.4624L144.91 20.8611L137.327 22.5462L129.744 24.2313L132.1 34.8326L139.683 33.1475ZM137.327 22.5462L143.053 17.2973C141.17 15.2429 138.812 14.2732 136.932 13.7827C135.005 13.2801 132.95 13.1154 130.952 13.1154V20.8833V28.6511C131.545 28.6511 132.012 28.6768 132.37 28.7138C132.732 28.7513 132.934 28.7955 133.01 28.8153C133.091 28.8363 132.968 28.8137 132.722 28.6838C132.47 28.55 132.044 28.279 131.601 27.7952L137.327 22.5462ZM130.952 20.8833V13.1154C124.151 13.1154 119.001 16.8082 115.792 22.2991L122.499 26.2186L129.205 30.138C129.762 29.1853 130.182 28.8712 130.317 28.786C130.4 28.7335 130.538 28.6511 130.952 28.6511V20.8833ZM122.499 26.2186L115.776 22.3266C112.739 27.5738 111.682 34.363 111.682 41.7394H119.45H127.218C127.218 35.4427 128.194 31.8846 129.221 30.1105L122.499 26.2186ZM119.45 41.7394H111.682C111.682 49.0543 112.757 55.7067 115.466 61.187L122.43 57.7452L129.393 54.3033C128.129 51.7461 127.218 47.7279 127.218 41.7394H119.45ZM122.43 57.7452L115.498 61.2509C116.95 64.1217 118.969 66.7602 121.764 68.6747C124.626 70.6351 127.874 71.5412 131.229 71.5412V63.7734V56.0055C130.75 56.0055 130.615 55.9069 130.544 55.8579C130.405 55.7631 129.942 55.3875 129.361 54.2395L122.43 57.7452ZM131.229 63.7734V71.5412C133.421 71.5412 135.987 71.3558 138.291 70.478L135.525 63.219L132.76 55.9601C133.019 55.8614 133.056 55.8886 132.73 55.9308C132.427 55.9699 131.94 56.0055 131.229 56.0055V63.7734ZM135.525 63.219L138.18 70.5192C140.151 69.8023 142.006 68.6935 143.582 67.1181L138.089 61.6254L132.596 56.1327C132.681 56.0478 132.764 55.986 132.827 55.9463C132.889 55.908 132.911 55.9042 132.871 55.9189L135.525 63.219ZM138.089 61.6254L145.249 64.6368L148.367 57.2228L141.207 54.2114L134.047 51.2001L130.929 58.614L138.089 61.6254ZM141.207 54.2114L140.497 61.9467L147.287 62.5703L147.997 54.835L148.708 47.0997L141.917 46.4761L141.207 54.2114ZM147.997 54.835L140.276 53.9824L139.029 65.2766L146.75 66.1292L154.471 66.9818L155.718 55.6877L147.997 54.835ZM146.75 66.1292L146.216 58.3797C144.057 58.5286 141.787 59.0507 139.534 59.748L141.831 67.1685L144.127 74.5891C145.755 74.0854 146.765 73.9145 147.285 73.8786L146.75 66.1292ZM141.831 67.1685L139.771 59.6787C138.147 60.1253 136.654 60.4565 135.288 60.6843L136.565 68.3464L137.842 76.0086C139.801 75.6821 141.819 75.228 143.89 74.6583L141.831 67.1685ZM136.565 68.3464L135.252 60.6903C134.218 60.8676 132.681 60.9943 130.536 60.9943V68.7622V76.53C133.196 76.53 135.678 76.3796 137.877 76.0026L136.565 68.3464ZM156.181 17.9731H163.949V11.4984L157.58 10.3323L156.181 17.9731ZM151.262 17.0724H143.494V23.5471L149.863 24.7132L151.262 17.0724ZM151.262 12.8457L150.341 5.13266L143.494 5.9502V12.8457H151.262ZM165.189 11.1828V3.41493H164.727L164.268 3.46971L165.189 11.1828ZM165.397 11.1828L169.952 4.89127L167.914 3.41493H165.397V11.1828ZM167.406 12.6379L175.174 12.6021L175.156 8.65901L171.962 6.34635L167.406 12.6379ZM167.475 27.6736L175.212 28.3691L175.245 28.0042L175.243 27.6378L167.475 27.6736ZM166.921 33.8404L159.184 33.145L157.362 53.4197L172.228 39.513L166.921 33.8404ZM172.603 30.3066L175.679 37.4392L175.738 37.4139L175.796 37.3877L172.603 30.3066ZM187.153 30.3066L191.419 23.815L191.419 23.815L187.153 30.3066ZM190.549 35.1569L197.993 32.9393L197.993 32.9393L190.549 35.1569ZM191.519 62.8033H183.751V69.5092L190.385 70.488L191.519 62.8033ZM195.745 63.4269H203.513V56.721L196.879 55.7422L195.745 63.4269ZM195.745 68V75.7679H203.513V68H195.745ZM176.483 68H168.715V75.7679H176.483V68ZM176.483 63.4269L175.182 55.7687L168.715 56.8669V63.4269H176.483ZM180.155 62.8033L181.456 70.4615L187.923 69.3633V62.8033H180.155ZM179.116 37.1663L172.269 40.8344L172.297 40.8868L172.326 40.9387L179.116 37.1663ZM171.009 36.1269L174.069 43.2667L174.175 43.2212L174.28 43.1724L171.009 36.1269ZM167.752 38.2056L162.41 32.5665L159.985 34.8644V38.2056H167.752ZM167.752 62.8033H159.985V69.4034L166.498 70.4692L167.752 62.8033ZM171.563 63.4269H179.331V56.8268L172.818 55.761L171.563 63.4269ZM171.563 68V75.7679H179.331V68H171.563ZM152.578 68H144.81V75.7679H152.578V68ZM152.578 63.4269L151.253 55.7728L144.81 56.888V63.4269H152.578ZM156.181 62.8033L157.506 70.4574L163.949 69.3422V62.8033H156.181ZM156.181 17.9731L157.58 10.3323L152.661 9.43154L151.262 17.0724L149.863 24.7132L154.782 25.614L156.181 17.9731ZM151.262 17.0724H159.029V12.8457H151.262H143.494V17.0724H151.262ZM151.262 12.8457L152.183 20.5588L166.11 18.8959L165.189 11.1828L164.268 3.46971L150.341 5.13266L151.262 12.8457ZM165.189 11.1828V18.9506H165.397V11.1828V3.41493H165.189V11.1828ZM165.397 11.1828L160.841 17.4743L162.85 18.9294L167.406 12.6379L171.962 6.34635L169.952 4.89127L165.397 11.1828ZM167.406 12.6379L159.638 12.6737L159.707 27.7094L167.475 27.6736L175.243 27.6378L175.174 12.6021L167.406 12.6379ZM167.475 27.6736L159.739 26.9782L159.184 33.145L166.921 33.8404L174.658 34.5358L175.212 28.3691L167.475 27.6736ZM166.921 33.8404L172.228 39.513C172.839 38.9408 173.906 38.2042 175.679 37.4392L172.603 30.3066L169.526 23.1741C166.588 24.4415 163.867 26.0608 161.614 28.1677L166.921 33.8404ZM172.603 30.3066L175.796 37.3877C177.06 36.8175 178.546 36.4808 180.363 36.4808V28.713V20.9451C176.545 20.9451 172.857 21.6708 169.409 23.2256L172.603 30.3066ZM180.363 28.713V36.4808C181.363 36.4808 182.042 36.5738 182.468 36.6738C182.887 36.7721 182.976 36.8568 182.887 36.7983L187.153 30.3066L191.419 23.815C188.047 21.5989 184.074 20.9451 180.363 20.9451V28.713ZM187.153 30.3066L182.887 36.7983C182.881 36.7939 182.867 36.7836 182.853 36.7698C182.839 36.7562 182.839 36.753 182.851 36.7706C182.874 36.8035 182.984 36.9717 183.104 37.3744L190.549 35.1569L197.993 32.9393C196.918 29.329 194.821 26.0501 191.419 23.815L187.153 30.3066ZM190.549 35.1569L183.104 37.3744C183.448 38.5306 183.751 40.5787 183.751 43.818H191.519H199.286C199.286 39.8513 198.942 36.1252 197.993 32.9393L190.549 35.1569ZM191.519 43.818H183.751V62.8033H191.519H199.286V43.818H191.519ZM191.519 62.8033L190.385 70.488L194.611 71.1116L195.745 63.4269L196.879 55.7422L192.652 55.1186L191.519 62.8033ZM195.745 63.4269H187.977V68H195.745H203.513V63.4269H195.745ZM195.745 68V60.2321H176.483V68V75.7679H195.745V68ZM176.483 68H184.251V63.4269H176.483H168.715V68H176.483ZM176.483 63.4269L177.783 71.0851L181.456 70.4615L180.155 62.8033L178.855 55.1451L175.182 55.7687L176.483 63.4269ZM180.155 62.8033H187.923V43.8873H180.155H172.387V62.8033H180.155ZM180.155 43.8873H187.923C187.923 40.61 187.659 36.5492 185.906 33.3939L179.116 37.1663L172.326 40.9387C172.162 40.6448 172.116 40.4708 172.126 40.5064C172.134 40.534 172.174 40.6768 172.219 40.969C172.312 41.57 172.387 42.5154 172.387 43.8873H180.155ZM179.116 37.1663L185.963 33.4981C183.354 28.627 178.442 27.4583 174.889 27.4583V35.2262V42.994C175.223 42.994 174.914 43.0534 174.299 42.7709C173.556 42.43 172.769 41.7691 172.269 40.8344L179.116 37.1663ZM174.889 35.2262V27.4583C172.354 27.4583 169.95 28.0543 167.738 29.0814L171.009 36.1269L174.28 43.1724C174.655 42.9985 174.837 42.994 174.889 42.994V35.2262ZM171.009 36.1269L167.949 28.9871C165.948 29.8447 164.053 31.0097 162.41 32.5665L167.752 38.2056L173.095 43.8447C173.207 43.7385 173.483 43.5177 174.069 43.2667L171.009 36.1269ZM167.752 38.2056H159.985V62.8033H167.752H175.52V38.2056H167.752ZM167.752 62.8033L166.498 70.4692L170.309 71.0928L171.563 63.4269L172.818 55.761L169.007 55.1374L167.752 62.8033ZM171.563 63.4269H163.795V68H171.563H179.331V63.4269H171.563ZM171.563 68V60.2321H152.578V68V75.7679H171.563V68ZM152.578 68H160.346V63.4269H152.578H144.81V68H152.578ZM152.578 63.4269L153.903 71.081L157.506 70.4574L156.181 62.8033L154.856 55.1492L151.253 55.7728L152.578 63.4269ZM156.181 62.8033H163.949V17.9731H156.181H148.413V62.8033H156.181ZM203.766 63.4269L197.836 68.4445L197.852 68.4634L197.868 68.4822L203.766 63.4269ZM201.549 37.8592L208.454 41.4165L208.454 41.4165L201.549 37.8592ZM208.131 30.9302L211.913 37.7153L211.932 37.705L211.95 37.6947L208.131 30.9302ZM229.265 32.1774L223.874 37.7709L223.9 37.7952L223.925 37.8192L229.265 32.1774ZM233.283 42.5708H241.051V42.4908L241.049 42.4107L233.283 42.5708ZM232.66 49.7076V57.4755H238.839L240.229 51.4543L232.66 49.7076ZM210.972 49.7076V41.9398H202.734L203.218 50.1638L210.972 49.7076ZM213.813 58.7152L207.747 63.5678L207.807 63.6419L207.868 63.7146L213.813 58.7152ZM226.285 60.9325L228.517 68.3728L228.575 68.3554L228.633 68.3371L226.285 60.9325ZM230.858 58.9231L237.918 55.6826L234.192 47.5666L226.671 52.3805L230.858 58.9231ZM232.798 63.1498L238.582 68.3351L241.984 64.5407L239.858 59.9093L232.798 63.1498ZM226.632 66.9607L223.668 59.7803L223.648 59.7887L223.627 59.7972L226.632 66.9607ZM222.266 45.1345V52.9024H229.851L230.032 45.3194L222.266 45.1345ZM222.336 42.2244L230.101 42.4093L230.103 42.3168V42.2244H222.336ZM221.158 35.5726L214.252 39.13L214.252 39.13L221.158 35.5726ZM212.635 35.8498L219.181 40.0319L219.207 39.9915L219.232 39.9507L212.635 35.8498ZM210.903 45.1345L203.137 44.976L202.975 52.9024H210.903V45.1345ZM217.832 68.7622V60.9943C212.932 60.9943 210.767 59.6582 209.664 58.3717L203.766 63.4269L197.868 68.4822C202.863 74.3093 210.075 76.53 217.832 76.53V68.7622ZM203.766 63.4269L209.696 58.4093C208.162 56.596 206.961 53.6705 206.961 48.7376H199.193H191.425C191.425 56.1843 193.273 63.0518 197.836 68.4445L203.766 63.4269ZM199.193 48.7376H206.961C206.961 45.4964 207.564 43.144 208.454 41.4165L201.549 37.8592L194.643 34.3018C192.392 38.6717 191.425 43.5717 191.425 48.7376H199.193ZM201.549 37.8592L208.454 41.4165C209.371 39.6376 210.518 38.4931 211.913 37.7153L208.131 30.9302L204.349 24.1452C200.109 26.5085 196.868 29.9833 194.643 34.3018L201.549 37.8592ZM208.131 30.9302L211.95 37.6947C213.468 36.8375 215.459 36.273 218.178 36.273V28.5051V20.7372C213.23 20.7372 208.522 21.7894 204.313 24.1658L208.131 30.9302ZM218.178 28.5051V36.273C221.783 36.273 223.252 37.1711 223.874 37.7709L229.265 32.1774L234.655 26.584C230.196 22.2873 224.273 20.7372 218.178 20.7372V28.5051ZM229.265 32.1774L223.925 37.8192C224.635 38.4908 225.456 39.7615 225.517 42.731L233.283 42.5708L241.049 42.4107C240.926 36.4187 239.068 30.7605 234.604 26.5357L229.265 32.1774ZM233.283 42.5708H225.515C225.515 45.2443 225.32 46.9681 225.091 47.961L232.66 49.7076L240.229 51.4543C240.831 48.8442 241.051 45.81 241.051 42.5708H233.283ZM232.66 49.7076V41.9398H210.972V49.7076V57.4755H232.66V49.7076ZM210.972 49.7076L203.218 50.1638C203.5 54.9671 204.705 59.7643 207.747 63.5678L213.813 58.7152L219.879 53.8627C219.596 53.5088 218.906 52.3009 218.727 49.2515L210.972 49.7076ZM213.813 58.7152L207.868 63.7146C211.281 67.7731 215.987 69.5318 220.95 69.5318V61.764V53.9961C220.29 53.9961 219.999 53.8877 219.931 53.8584C219.893 53.8422 219.875 53.8305 219.864 53.8221C219.852 53.8133 219.816 53.785 219.758 53.7158L213.813 58.7152ZM220.95 61.764V69.5318C223.505 69.5318 226.037 69.1168 228.517 68.3728L226.285 60.9325L224.053 53.4922C222.838 53.8568 221.813 53.9961 220.95 53.9961V61.764ZM226.285 60.9325L228.633 68.3371C230.912 67.6143 233.125 66.6951 235.045 65.4657L230.858 58.9231L226.671 52.3805C226.282 52.6293 225.446 53.0496 223.937 53.5279L226.285 60.9325ZM230.858 58.9231L223.798 62.1636L225.739 66.3902L232.798 63.1498L239.858 59.9093L237.918 55.6826L230.858 58.9231ZM232.798 63.1498L227.015 57.9644C227.046 57.9287 226.87 58.13 226.272 58.4993C225.69 58.8591 224.844 59.2948 223.668 59.7803L226.632 66.9607L229.595 74.1411C232.89 72.781 236.222 70.9671 238.582 68.3351L232.798 63.1498ZM226.632 66.9607L223.627 59.7972C221.681 60.6133 219.767 60.9943 217.832 60.9943V68.7622V76.53C221.901 76.53 225.854 75.7101 229.636 74.1241L226.632 66.9607ZM222.266 45.1345L230.032 45.3194L230.101 42.4093L222.336 42.2244L214.57 42.0395L214.501 44.9496L222.266 45.1345ZM222.336 42.2244H230.103C230.103 38.8292 229.681 35.1558 228.063 32.0153L221.158 35.5726L214.252 39.13C214.196 39.0214 214.292 39.1665 214.392 39.7333C214.49 40.2874 214.568 41.0995 214.568 42.2244H222.336ZM221.158 35.5726L228.063 32.0153C227.061 30.0699 225.529 28.3147 223.405 27.1062C221.325 25.9225 219.127 25.5182 217.139 25.5182V33.2861V41.0539C217.045 41.0539 216.463 41.0307 215.723 40.6092C214.938 40.1629 214.469 39.551 214.252 39.13L221.158 35.5726ZM217.139 33.2861V25.5182C212.394 25.5182 208.454 27.8627 206.038 31.7489L212.635 35.8498L219.232 39.9507C219.194 40.0128 218.947 40.3666 218.401 40.6778C217.841 40.996 217.347 41.0539 217.139 41.0539V33.2861ZM212.635 35.8498L206.089 31.6676C204.797 33.6905 204.145 35.9806 203.769 37.9935C203.377 40.0961 203.188 42.455 203.137 44.976L210.903 45.1345L218.669 45.293C218.71 43.2872 218.856 41.8351 219.041 40.8428C219.243 39.7608 219.411 39.672 219.181 40.0319L212.635 35.8498ZM210.903 45.1345V52.9024H222.266V45.1345V37.3667H210.903V45.1345ZM238.529 63.4269L237.229 55.7687L230.761 56.8669V63.4269H238.529ZM242.202 62.8033L243.502 70.4615L249.969 69.3633V62.8033H242.202ZM242.202 36.7505H249.969V30.9991L244.468 29.3208L242.202 36.7505ZM238.113 35.5033H230.346V41.2548L235.847 42.9331L238.113 35.5033ZM238.113 30.0988L237.181 22.387L230.346 23.2133V30.0988H238.113ZM250.724 28.5744L254.198 21.6266L252.11 20.5825L249.792 20.8627L250.724 28.5744ZM251.278 28.8516L257.599 24.3366L256.478 22.7666L254.752 21.9038L251.278 28.8516ZM252.664 30.7917H260.432V28.3023L258.985 26.2767L252.664 30.7917ZM252.664 34.2561H244.896V53.4251L258.241 39.6637L252.664 34.2561ZM259.177 30.3759L261.879 37.6588L261.931 37.6397L261.982 37.62L259.177 30.3759ZM272.55 29.9602L268.831 36.7795L268.873 36.8027L268.916 36.8253L272.55 29.9602ZM276.084 33.8404L268.993 37.0125L273.454 46.983L281.408 39.4969L276.084 33.8404ZM281.974 30.1681L279.065 22.9654L279.04 22.9752L279.016 22.9853L281.974 30.1681ZM297.979 32.2467L291.751 36.8879L291.78 36.9268L291.809 36.9653L297.979 32.2467ZM300.682 62.8033H292.914V69.4929L299.529 70.4852L300.682 62.8033ZM304.839 63.4269H312.607V56.7373L305.991 55.745L304.839 63.4269ZM304.839 68V75.7679H312.607V68H304.839ZM286.062 68H278.294V75.7679H286.062V68ZM286.062 63.4269L284.538 55.8099L278.294 57.0588V63.4269H286.062ZM289.18 62.8033L290.703 70.4203L296.948 69.1714V62.8033H289.18ZM288.002 37.1663L281.257 41.0202L281.308 41.1096L281.362 41.1976L288.002 37.1663ZM277.193 37.9284L272.415 31.8035L268.789 34.6321L269.525 39.1719L277.193 37.9284ZM277.608 62.8033H269.841V69.4224L276.376 70.4727L277.608 62.8033ZM281.489 63.4269H289.256V56.8078L282.721 55.7575L281.489 63.4269ZM281.489 68V75.7679H289.256V68H281.489ZM262.573 68H254.805V75.7679H262.573V68ZM262.573 63.4269L261.197 55.7819L254.805 56.9324V63.4269H262.573ZM266.037 62.8033L267.413 70.4483L273.805 69.2978V62.8033H266.037ZM264.928 37.097L258.138 40.8694L258.191 40.964L258.246 41.0571L264.928 37.097ZM257.029 36.1269L260.184 43.2253L260.243 43.1993L260.301 43.1724L257.029 36.1269ZM253.773 38.2056L248.576 32.4318L246.005 34.7461V38.2056H253.773ZM253.773 62.8033H246.005V69.3837L252.496 70.4655L253.773 62.8033ZM257.514 63.4269H265.282V56.8465L258.792 55.7647L257.514 63.4269ZM257.514 68V75.7679H265.282V68H257.514ZM238.529 68H230.761V75.7679H238.529V68ZM238.529 63.4269L239.83 71.0851L243.502 70.4615L242.202 62.8033L240.901 55.1451L237.229 55.7687L238.529 63.4269ZM242.202 62.8033H249.969V36.7505H242.202H234.434V62.8033H242.202ZM242.202 36.7505L244.468 29.3208L240.38 28.0735L238.113 35.5033L235.847 42.9331L239.935 44.1803L242.202 36.7505ZM238.113 35.5033H245.881V30.0988H238.113H230.346V35.5033H238.113ZM238.113 30.0988L239.046 37.8105L251.656 36.2861L250.724 28.5744L249.792 20.8627L237.181 22.387L238.113 30.0988ZM250.724 28.5744L247.25 35.5222L247.805 35.7993L251.278 28.8516L254.752 21.9038L254.198 21.6266L250.724 28.5744ZM251.278 28.8516L244.957 33.3665L246.343 35.3066L252.664 30.7917L258.985 26.2767L257.599 24.3366L251.278 28.8516ZM252.664 30.7917H244.896V34.2561H252.664H260.432V30.7917H252.664ZM252.664 34.2561L258.241 39.6637C258.639 39.2534 259.66 38.4822 261.879 37.6588L259.177 30.3759L256.476 23.093C252.967 24.3945 249.646 26.2101 247.088 28.8486L252.664 34.2561ZM259.177 30.3759L261.982 37.62C264.362 36.6984 265.808 36.4808 266.522 36.4808V28.713V20.9451C263.171 20.9451 259.72 21.8362 256.373 23.1319L259.177 30.3759ZM266.522 28.713V36.4808C268.248 36.4808 268.837 36.7831 268.831 36.7795L272.55 29.9602L276.27 23.1408C273.215 21.4743 269.785 20.9451 266.522 20.9451V28.713ZM272.55 29.9602L268.916 36.8253C268.925 36.8304 268.919 36.8278 268.903 36.8159C268.888 36.8038 268.875 36.7917 268.869 36.7842C268.862 36.777 268.87 36.7847 268.891 36.816C268.911 36.8481 268.948 36.9103 268.993 37.0125L276.084 33.8404L283.175 30.6683C281.744 27.4692 279.416 24.8057 276.185 23.095L272.55 29.9602ZM276.084 33.8404L281.408 39.4969C282.177 38.7733 283.295 38.0245 284.931 37.3508L281.974 30.1681L279.016 22.9853C275.94 24.2517 273.133 25.9511 270.76 28.1838L276.084 33.8404ZM281.974 30.1681L284.882 37.3707C286.415 36.752 287.855 36.4808 289.249 36.4808V28.713V20.9451C285.747 20.9451 282.337 21.644 279.065 22.9654L281.974 30.1681ZM289.249 28.713V36.4808C290.563 36.4808 291.266 36.6753 291.566 36.7968C291.706 36.8534 291.756 36.8928 291.756 36.8929C291.758 36.8944 291.756 36.8925 291.751 36.888C291.747 36.8835 291.746 36.8824 291.751 36.8879L297.979 32.2467L304.208 27.6056C300.474 22.594 294.759 20.9451 289.249 20.9451V28.713ZM297.979 32.2467L291.809 36.9653C292.023 37.2457 292.914 38.9544 292.914 43.818H300.682H308.45C308.45 37.9649 307.539 31.9594 304.15 27.5281L297.979 32.2467ZM300.682 43.818H292.914V62.8033H300.682H308.45V43.818H300.682ZM300.682 62.8033L299.529 70.4852L303.687 71.1088L304.839 63.4269L305.991 55.745L301.834 55.1214L300.682 62.8033ZM304.839 63.4269H297.071V68H304.839H312.607V63.4269H304.839ZM304.839 68V60.2321H286.062V68V75.7679H304.839V68ZM286.062 68H293.83V63.4269H286.062H278.294V68H286.062ZM286.062 63.4269L287.585 71.0439L290.703 70.4203L289.18 62.8033L287.656 55.1863L284.538 55.8099L286.062 63.4269ZM289.18 62.8033H296.948V44.0952H289.18H281.412V62.8033H289.18ZM289.18 44.0952H296.948C296.948 40.6782 296.638 36.4229 294.642 33.1349L288.002 37.1663L281.362 41.1976C281.183 40.9032 281.127 40.7208 281.134 40.7406C281.138 40.7547 281.179 40.8858 281.227 41.1704C281.327 41.7582 281.412 42.7032 281.412 44.0952H289.18ZM288.002 37.1663L294.746 33.3123C292.136 28.7437 287.516 27.4583 283.844 27.4583V35.2262V42.994C284.081 42.994 283.739 43.0376 283.123 42.7503C282.403 42.4141 281.707 41.8062 281.257 41.0202L288.002 37.1663ZM283.844 35.2262V27.4583C279.438 27.4583 275.58 29.3346 272.415 31.8035L277.193 37.9284L281.97 44.0534C283.424 42.9192 284.001 42.994 283.844 42.994V35.2262ZM277.193 37.9284L269.525 39.1719C269.72 40.3745 269.841 41.908 269.841 43.818H277.608H285.376C285.376 41.2936 285.22 38.9007 284.86 36.685L277.193 37.9284ZM277.608 43.818H269.841V62.8033H277.608H285.376V43.818H277.608ZM277.608 62.8033L276.376 70.4727L280.256 71.0963L281.489 63.4269L282.721 55.7575L278.841 55.1339L277.608 62.8033ZM281.489 63.4269H273.721V68H281.489H289.256V63.4269H281.489ZM281.489 68V60.2321H262.573V68V75.7679H281.489V68ZM262.573 68H270.34V63.4269H262.573H254.805V68H262.573ZM262.573 63.4269L263.949 71.0719L267.413 70.4483L266.037 62.8033L264.661 55.1583L261.197 55.7819L262.573 63.4269ZM266.037 62.8033H273.805V43.8873H266.037H258.269V62.8033H266.037ZM266.037 43.8873H273.805C273.805 40.565 273.526 36.3691 271.611 33.1369L264.928 37.097L258.246 41.0571C258.149 40.8939 258.088 40.765 258.054 40.6855C258.037 40.6447 258.025 40.6136 258.017 40.5935C258.01 40.5733 258.006 40.5625 258.006 40.5621C258.006 40.5616 258.009 40.5701 258.014 40.5883C258.019 40.6066 258.025 40.6333 258.034 40.6691C258.05 40.7417 258.071 40.8447 258.094 40.9816C258.189 41.5654 258.269 42.5044 258.269 43.8873H266.037ZM264.928 37.097L271.719 33.3246C269.141 28.6852 264.469 27.4583 260.91 27.4583V35.2262V42.994C261.14 42.994 260.772 43.037 260.126 42.7361C259.366 42.3823 258.618 41.7327 258.138 40.8694L264.928 37.097ZM260.91 35.2262V27.4583C258.375 27.4583 255.97 28.0543 253.758 29.0814L257.029 36.1269L260.301 43.1724C260.675 42.9985 260.858 42.994 260.91 42.994V35.2262ZM257.029 36.1269L253.875 29.0286C251.954 29.8821 250.163 31.0035 248.576 32.4318L253.773 38.2056L258.969 43.9794C259.23 43.7448 259.61 43.4804 260.184 43.2253L257.029 36.1269ZM253.773 38.2056H246.005V62.8033H253.773H261.541V38.2056H253.773ZM253.773 62.8033L252.496 70.4655L256.237 71.0891L257.514 63.4269L258.792 55.7647L255.05 55.1411L253.773 62.8033ZM257.514 63.4269H249.747V68H257.514H265.282V63.4269H257.514ZM257.514 68V60.2321H238.529V68V75.7679H257.514V68ZM238.529 68H246.297V63.4269H238.529H230.761V68H238.529ZM313.529 13.0536L308.036 7.56089L307.984 7.6127L307.934 7.66549L313.529 13.0536ZM323.299 12.7764L328.673 7.16814L328.673 7.16814L323.299 12.7764ZM323.091 21.7148L328.479 27.3101L328.532 27.2593L328.584 27.2075L323.091 21.7148ZM313.529 36.7505H321.297V30.8792L315.648 29.2774L313.529 36.7505ZM308.887 35.434H301.119V41.3054L306.767 42.9072L308.887 35.434ZM308.887 30.2373L307.961 22.5248L301.119 23.3459V30.2373H308.887ZM322.744 28.5744V20.8065H322.28L321.819 20.8619L322.744 28.5744ZM322.883 28.5744L327.24 22.1432L325.266 20.8065H322.883V28.5744ZM325.031 30.0295H332.799V25.9092L329.388 23.5983L325.031 30.0295ZM325.031 62.8033H317.263V69.4929L323.879 70.4852L325.031 62.8033ZM329.188 63.4269H336.956V56.7373L330.341 55.745L329.188 63.4269ZM329.188 68V75.7679H336.956V68H329.188ZM309.233 68H301.465V75.7679H309.233V68ZM309.233 63.4269L308.117 55.7396L301.465 56.7052V63.4269H309.233ZM313.529 62.8033L314.645 70.4906L321.297 69.525V62.8033H313.529ZM317.756 23.5163V15.7484C317.618 15.7484 317.724 15.7288 317.977 15.8211C318.251 15.9211 318.535 16.0943 318.765 16.3143L313.39 21.9226L308.016 27.5309C310.818 30.2166 314.323 31.2841 317.756 31.2841V23.5163ZM313.39 21.9226L318.765 16.3143C318.964 16.5051 319.186 16.802 319.338 17.1769C319.486 17.5385 319.495 17.7928 319.495 17.8346H311.727H303.96C303.96 21.4198 305.243 24.8736 308.016 27.5309L313.39 21.9226ZM311.727 17.8346H319.495C319.495 17.6713 319.519 17.7316 319.447 17.9233C319.412 18.0152 319.363 18.1153 319.301 18.214C319.238 18.3124 319.175 18.3887 319.124 18.4417L313.529 13.0536L307.934 7.66549C305.166 10.5392 303.96 14.1481 303.96 17.8346H311.727ZM313.529 13.0536L319.022 18.5463C318.949 18.6191 318.855 18.6972 318.743 18.7693C318.631 18.8412 318.525 18.8914 318.439 18.9238C318.264 18.9896 318.254 18.9506 318.518 18.9506V11.1828V3.41493C314.775 3.41493 310.998 4.59904 308.036 7.56089L313.529 13.0536ZM318.518 11.1828V18.9506C318.912 18.9506 318.973 19.0029 318.816 18.9504C318.731 18.9224 318.596 18.8678 318.43 18.7702C318.263 18.6714 318.089 18.5428 317.924 18.3847L323.299 12.7764L328.673 7.16814C325.669 4.28928 321.876 3.41493 318.518 3.41493V11.1828ZM323.299 12.7764L317.924 18.3847C317.725 18.194 317.503 17.8971 317.351 17.5222C317.204 17.1606 317.194 16.9063 317.194 16.8645H324.962H332.73C332.73 13.2793 331.446 9.82547 328.673 7.16814L323.299 12.7764ZM324.962 16.8645H317.194C317.194 17.04 317.168 16.9753 317.247 16.7714C317.284 16.6732 317.338 16.5667 317.406 16.4619C317.474 16.3575 317.543 16.2773 317.598 16.2221L323.091 21.7148L328.584 27.2075C331.476 24.3145 332.73 20.6274 332.73 16.8645H324.962ZM323.091 21.7148L317.703 16.1194C317.818 16.0086 317.942 15.915 318.064 15.842C318.184 15.77 318.277 15.7325 318.325 15.7162C318.412 15.6863 318.283 15.7484 317.825 15.7484V23.5163V31.2841C321.459 31.2841 325.382 30.2926 328.479 27.3101L323.091 21.7148ZM317.825 23.5163V15.7484H317.756V23.5163V31.2841H317.825V23.5163ZM313.529 36.7505L315.648 29.2774L311.006 27.9609L308.887 35.434L306.767 42.9072L311.41 44.2237L313.529 36.7505ZM308.887 35.434H316.654V30.2373H308.887H301.119V35.434H308.887ZM308.887 30.2373L309.812 37.9499L323.67 36.2869L322.744 28.5744L321.819 20.8619L307.961 22.5248L308.887 30.2373ZM322.744 28.5744V36.3423H322.883V28.5744V20.8065H322.744V28.5744ZM322.883 28.5744L318.526 35.0056L320.674 36.4606L325.031 30.0295L329.388 23.5983L327.24 22.1432L322.883 28.5744ZM325.031 30.0295H317.263V62.8033H325.031H332.799V30.0295H325.031ZM325.031 62.8033L323.879 70.4852L328.036 71.1088L329.188 63.4269L330.341 55.745L326.183 55.1214L325.031 62.8033ZM329.188 63.4269H321.42V68H329.188H336.956V63.4269H329.188ZM329.188 68V60.2321H309.233V68V75.7679H329.188V68ZM309.233 68H317.001V63.4269H309.233H301.465V68H309.233ZM309.233 63.4269L310.349 71.1142L314.645 70.4906L313.529 62.8033L312.413 55.116L308.117 55.7396L309.233 63.4269ZM313.529 62.8033H321.297V36.7505H313.529H305.761V62.8033H313.529ZM342.661 62.249L335.255 64.5926L335.562 65.5618L336.108 66.4194L342.661 62.249ZM344.879 63.6348L342.247 70.9435L342.292 70.9597L342.338 70.9753L344.879 63.6348ZM352.778 63.0805L357.665 69.118L357.681 69.1053L357.696 69.0924L352.778 63.0805ZM352.362 56.498L347.847 62.8189L347.923 62.8732L348 62.9257L352.362 56.498ZM345.987 53.1721L342.815 60.2627L342.844 60.2758L342.874 60.2887L345.987 53.1721ZM343.354 51.9942L346.526 44.9035L346.519 44.9003L343.354 51.9942ZM336.564 47.1439L330.385 51.8516L330.448 51.9339L330.513 52.0144L336.564 47.1439ZM336.217 34.1175L342.432 38.7783L342.462 38.7375L342.492 38.6965L336.217 34.1175ZM341.622 30.0988L338.664 22.916L338.664 22.916L341.622 30.0988ZM360.607 30.0988L362.782 22.6416L362.637 22.5994L362.491 22.5628L360.607 30.0988ZM363.102 30.6531H370.869V23.5056L363.747 22.912L363.102 30.6531ZM363.102 40.0764V47.8443H370.869V40.0764H363.102ZM356.935 40.0764L349.575 42.5615L351.359 47.8443H356.935V40.0764ZM355.133 34.7411L362.493 32.2561L362.267 31.5865L361.924 30.9687L355.133 34.7411ZM353.47 33.6325L350.456 40.7916L350.619 40.8603L350.785 40.9214L353.47 33.6325ZM346.334 34.2561L350.902 40.5383L350.994 40.4718L351.083 40.4027L346.334 34.2561ZM346.541 40.8386L341.841 47.0231L341.921 47.0838L342.003 47.1425L346.541 40.8386ZM352.085 43.818L348.87 50.8896L348.947 50.9246L349.025 50.9578L352.085 43.818ZM353.54 44.4416L350.48 51.5814L350.506 51.5929L350.533 51.6041L353.54 44.4416ZM362.339 49.5691L357.242 55.4307L357.279 55.4626L357.316 55.494L362.339 49.5691ZM361.439 65.5056L366.279 71.5813L366.31 71.5564L366.341 71.5312L361.439 65.5056ZM342.869 68.1386L344.535 60.5514L344.446 60.5319L344.357 60.5145L342.869 68.1386ZM336.633 66.6142L338.767 59.1452L338.722 59.1324L338.677 59.1201L336.633 66.6142ZM334.347 65.9906H326.579V71.9237L332.303 73.4848L334.347 65.9906ZM334.347 56.7751V49.0073H326.579V56.7751H334.347ZM340.929 56.7751L348.335 54.4315L346.618 49.0073H340.929V56.7751ZM342.661 62.249L336.108 66.4194C337.92 69.2675 340.871 70.4479 342.247 70.9435L344.879 63.6348L347.51 56.3261C347.259 56.2359 347.33 56.2362 347.575 56.3894C347.781 56.5183 348.54 57.0189 349.215 58.0786L342.661 62.249ZM344.879 63.6348L342.338 70.9753C344.308 71.6574 346.366 72.0262 348.482 72.0262V64.2584V56.4905C348.195 56.4905 347.851 56.4437 347.419 56.2943L344.879 63.6348ZM348.482 64.2584V72.0262C351.275 72.0262 354.756 71.473 357.665 69.118L352.778 63.0805L347.89 57.0429C348.382 56.6449 348.796 56.507 348.922 56.4725C349.029 56.4431 348.915 56.4905 348.482 56.4905V64.2584ZM352.778 63.0805L357.696 69.0924C360.484 66.8117 362.07 63.5572 362.07 59.8932H354.302H346.534C346.534 59.4954 346.619 58.9231 346.913 58.3085C347.205 57.6974 347.586 57.2917 347.859 57.0685L352.778 63.0805ZM354.302 59.8932H362.07C362.07 55.5707 359.829 52.1777 356.723 50.0703L352.362 56.498L348 62.9257C347.86 62.8304 347.442 62.5064 347.072 61.859C346.683 61.1766 346.534 60.4636 346.534 59.8932H354.302ZM352.362 56.498L356.877 50.177C354.896 48.762 352.155 47.3918 349.101 46.0555L345.987 53.1721L342.874 60.2887C345.732 61.5392 347.241 62.3862 347.847 62.8189L352.362 56.498ZM345.987 53.1721L349.159 46.0814L346.526 44.9035L343.354 51.9942L340.182 59.0848L342.815 60.2627L345.987 53.1721ZM343.354 51.9942L346.519 44.9003C344.264 43.894 343.144 42.9306 342.615 42.2734L336.564 47.1439L330.513 52.0144C333.032 55.1451 336.44 57.4151 340.189 59.088L343.354 51.9942ZM336.564 47.1439L342.743 42.4363C342.499 42.1169 342.114 41.4253 342.114 39.7993H334.347H326.579C326.579 44.0859 327.672 48.2908 330.385 51.8516L336.564 47.1439ZM334.347 39.7993H342.114C342.114 39.3149 342.217 39.0648 342.432 38.7783L336.217 34.1175L330.003 29.4568C327.724 32.4962 326.579 36.0339 326.579 39.7993H334.347ZM336.217 34.1175L342.492 38.6965C342.737 38.361 343.277 37.8181 344.58 37.2815L341.622 30.0988L338.664 22.916C335.256 24.3196 332.192 26.4558 329.943 29.5386L336.217 34.1175ZM341.622 30.0988L344.58 37.2815C345.794 36.7815 347.518 36.4115 349.937 36.4115V28.6437V20.8758C345.981 20.8758 342.162 21.4759 338.664 22.916L341.622 30.0988ZM349.937 28.6437V36.4115C351.856 36.4115 353.313 36.5334 354.375 36.7156L355.688 29.0594L357 21.4032C354.829 21.0311 352.452 20.8758 349.937 20.8758V28.6437ZM355.688 29.0594L354.375 36.7156C355.792 36.9584 357.241 37.2641 358.723 37.6347L360.607 30.0988L362.491 22.5628C360.648 22.102 358.817 21.7147 357 21.4032L355.688 29.0594ZM360.607 30.0988L358.432 37.5559C359.627 37.9043 361.083 38.2796 362.457 38.3941L363.102 30.6531L363.747 22.912C363.866 22.922 363.926 22.9328 363.911 22.9303C363.899 22.9284 363.847 22.9192 363.747 22.897C363.542 22.8514 363.227 22.7714 362.782 22.6416L360.607 30.0988ZM363.102 30.6531H355.334V40.0764H363.102H370.869V30.6531H363.102ZM363.102 40.0764V32.3086H356.935V40.0764V47.8443H363.102V40.0764ZM356.935 40.0764L364.294 37.5913L362.493 32.2561L355.133 34.7411L347.774 37.2262L349.575 42.5615L356.935 40.0764ZM355.133 34.7411L361.924 30.9687C360.25 27.9561 357.332 26.777 356.156 26.3436L353.47 33.6325L350.785 40.9214C350.863 40.95 350.623 40.8737 350.236 40.6154C349.872 40.3727 349.02 39.7328 348.343 38.5135L355.133 34.7411ZM353.47 33.6325L356.485 26.4734C354.509 25.6417 352.467 25.3103 350.491 25.3103V33.0782V40.8461C350.614 40.8461 350.661 40.8563 350.646 40.8536C350.639 40.8522 350.617 40.8478 350.584 40.8378C350.55 40.8278 350.507 40.813 350.456 40.7916L353.47 33.6325ZM350.491 33.0782V25.3103C347.639 25.3103 344.382 25.9471 341.584 28.1095L346.334 34.2561L351.083 40.4027C350.717 40.6857 350.398 40.8051 350.253 40.8463C350.126 40.8823 350.179 40.8461 350.491 40.8461V33.0782ZM346.334 34.2561L341.765 27.974C338.67 30.2247 337.041 33.6123 337.041 37.3048H344.809H352.577C352.577 37.6963 352.494 38.3353 352.138 39.0465C351.779 39.7656 351.292 40.2547 350.902 40.5383L346.334 34.2561ZM344.809 37.3048H337.041C337.041 41.1561 338.711 44.6439 341.841 47.0231L346.541 40.8386L351.242 34.6541C351.524 34.8689 351.919 35.2697 352.217 35.8778C352.513 36.4812 352.577 37.01 352.577 37.3048H344.809ZM346.541 40.8386L342.003 47.1425C343.8 48.4365 346.218 49.6839 348.87 50.8896L352.085 43.818L355.299 36.7464C352.87 35.6425 351.593 34.9036 351.08 34.5347L346.541 40.8386ZM352.085 43.818L349.025 50.9578L350.48 51.5814L353.54 44.4416L356.6 37.3019L355.145 36.6783L352.085 43.818ZM353.54 44.4416L350.533 51.6041C353.819 52.9833 355.95 54.3065 357.242 55.4307L362.339 49.5691L367.437 43.7074C364.48 41.1361 360.744 39.0411 356.546 37.2792L353.54 44.4416ZM362.339 49.5691L357.316 55.494C357.438 55.5976 357.759 55.7801 357.759 57.0523H365.527H373.295C373.295 51.9499 371.49 47.1435 367.363 43.6441L362.339 49.5691ZM365.527 57.0523H357.759C357.759 58.0588 357.507 58.6903 356.536 59.48L361.439 65.5056L366.341 71.5312C370.821 67.8864 373.295 62.8823 373.295 57.0523H365.527ZM361.439 65.5056L356.599 59.4299C355.806 60.0614 353.814 60.9943 349.382 60.9943V68.7622V76.53C355.575 76.53 361.621 75.2919 366.279 71.5813L361.439 65.5056ZM349.382 68.7622V60.9943C347.355 60.9943 345.761 60.8205 344.535 60.5514L342.869 68.1386L341.204 75.7258C343.765 76.2881 346.513 76.53 349.382 76.53V68.7622ZM342.869 68.1386L344.357 60.5145C342.721 60.1954 340.862 59.7437 338.767 59.1452L336.633 66.6142L334.499 74.0832C336.931 74.7781 339.229 75.3427 341.382 75.7627L342.869 68.1386ZM336.633 66.6142L338.677 59.1201L336.39 58.4965L334.347 65.9906L332.303 73.4848L334.589 74.1084L336.633 66.6142ZM334.347 65.9906H342.114V56.7751H334.347H326.579V65.9906H334.347ZM334.347 56.7751V64.543H340.929V56.7751V49.0073H334.347V56.7751ZM340.929 56.7751L333.523 59.1188L335.255 64.5926L342.661 62.249L350.067 59.9054L348.335 54.4315L340.929 56.7751ZM375.527 66.5449L370.034 72.0376L370.122 72.1262L370.214 72.2119L375.527 66.5449ZM373.379 35.2955H381.146V27.5276H373.379V35.2955ZM369.152 35.2955H361.384V43.0633H369.152V35.2955ZM369.152 31.2767L366.267 24.0644L361.384 26.0176V31.2767H369.152ZM370.538 30.7224L368.081 23.3531L367.865 23.4253L367.653 23.5101L370.538 30.7224ZM373.448 29.5444L376.922 36.4922L377.958 35.9741L378.798 35.1761L373.448 29.5444ZM375.665 26.08L368.495 23.0923L368.457 23.1836L368.421 23.2758L375.665 26.08ZM377.952 19.0818V11.3139H372.043L370.466 17.0087L377.952 19.0818ZM384.396 19.0818L392.157 18.7713L391.859 11.3139H384.396V19.0818ZM384.811 29.4752L377.05 29.7856L377.348 37.243H384.811V29.4752ZM394.72 29.4752H402.488V21.7073H394.72V29.4752ZM394.72 35.2955V43.0633H402.488V35.2955H394.72ZM384.95 35.2955V27.5276H377.182V35.2955H384.95ZM385.158 58.9924L377.461 60.0419L377.461 60.0419L385.158 58.9924ZM385.92 61.0018L380.805 66.8477L381.188 67.1828L381.611 67.465L385.92 61.0018ZM394.304 60.3089L401.673 57.8525L399.111 50.1653L391.539 53.0499L394.304 60.3089ZM395.759 64.6741L400.69 70.6765L404.818 67.2857L403.128 62.2177L395.759 64.6741ZM390.008 67.4457L392.302 74.8671L392.302 74.8671L390.008 67.4457ZM382.317 68.6236V60.8557C381.354 60.8557 380.825 60.7431 380.607 60.6763C380.419 60.6188 380.579 60.6338 380.839 60.878L375.527 66.5449L370.214 72.2119C373.712 75.4916 378.268 76.3915 382.317 76.3915V68.6236ZM375.527 66.5449L381.019 61.0522C381.282 61.3145 381.332 61.5139 381.3 61.4156C381.256 61.2798 381.146 60.8402 381.146 59.9624H373.379H365.611C365.611 64.0327 366.59 68.594 370.034 72.0376L375.527 66.5449ZM373.379 59.9624H381.146V35.2955H373.379H365.611V59.9624H373.379ZM373.379 35.2955V27.5276H369.152V35.2955V43.0633H373.379V35.2955ZM369.152 35.2955H376.92V31.2767H369.152H361.384V35.2955H369.152ZM369.152 31.2767L372.037 38.489L373.423 37.9346L370.538 30.7224L367.653 23.5101L366.267 24.0644L369.152 31.2767ZM370.538 30.7224L372.994 38.0916C374.367 37.6339 375.691 37.1078 376.922 36.4922L373.448 29.5444L369.974 22.5967C369.542 22.8126 368.926 23.0717 368.081 23.3531L370.538 30.7224ZM373.448 29.5444L378.798 35.1761C380.708 33.3621 382.024 31.1708 382.909 28.8841L375.665 26.08L368.421 23.2758C368.198 23.8531 368.036 23.9715 368.098 23.9128L373.448 29.5444ZM375.665 26.08L382.835 29.0676C383.71 26.9683 384.573 24.2795 385.438 21.1548L377.952 19.0818L370.466 17.0087C369.668 19.8891 369.006 21.8658 368.495 23.0923L375.665 26.08ZM377.952 19.0818V26.8496H384.396V19.0818V11.3139H377.952V19.0818ZM384.396 19.0818L376.634 19.3922L377.05 29.7856L384.811 29.4752L392.573 29.1647L392.157 18.7713L384.396 19.0818ZM384.811 29.4752V37.243H394.72V29.4752V21.7073H384.811V29.4752ZM394.72 29.4752H386.952V35.2955H394.72H402.488V29.4752H394.72ZM394.72 35.2955V27.5276H384.95V35.2955V43.0633H394.72V35.2955ZM384.95 35.2955H377.182V53.6571H384.95H392.718V35.2955H384.95ZM384.95 53.6571H377.182C377.182 56.1861 377.243 58.4444 377.461 60.0419L385.158 58.9924L392.854 57.9429C392.795 57.5079 392.718 56.2094 392.718 53.6571H384.95ZM385.158 58.9924L377.461 60.0419C377.579 60.9055 377.785 61.947 378.189 63.0118C378.575 64.0296 379.322 65.5506 380.805 66.8477L385.92 61.0018L391.035 55.1559C392.148 56.1296 392.583 57.1541 392.715 57.502C392.865 57.897 392.875 58.0955 392.854 57.9428L385.158 58.9924ZM385.92 61.0018L381.611 67.465C384.104 69.1269 386.925 69.1854 388.137 69.1854V61.4175V53.6497C387.907 53.6497 387.966 53.6317 388.218 53.6788C388.354 53.7043 388.602 53.7592 388.924 53.875C389.242 53.9896 389.707 54.1907 390.229 54.5385L385.92 61.0018ZM388.137 61.4175V69.1854C391.21 69.1854 394.206 68.6586 397.069 67.5679L394.304 60.3089L391.539 53.0499C390.522 53.4373 389.407 53.6497 388.137 53.6497V61.4175ZM394.304 60.3089L386.935 62.7653L388.39 67.1305L395.759 64.6741L403.128 62.2177L401.673 57.8525L394.304 60.3089ZM395.759 64.6741L390.828 58.6717C390.636 58.8296 389.793 59.3816 387.714 60.0243L390.008 67.4457L392.302 74.8671C395.304 73.9392 398.295 72.6435 400.69 70.6765L395.759 64.6741ZM390.008 67.4457L387.714 60.0243C385.896 60.5864 384.104 60.8557 382.317 60.8557V68.6236V76.3915C385.703 76.3915 389.039 75.8756 392.302 74.8671L390.008 67.4457ZM398.96 63.4269L397.827 55.7422L391.193 56.721V63.4269H398.96ZM403.187 62.8033L404.321 70.488L410.955 69.5092V62.8033H403.187ZM403.187 36.7505H410.955V30.9991L405.454 29.3208L403.187 36.7505ZM399.099 35.5033H391.331V41.2548L396.832 42.9331L399.099 35.5033ZM399.099 30.0988L398.078 22.3982L391.331 23.2925V30.0988H399.099ZM410.601 28.5744V20.8065H410.089L409.581 20.8739L410.601 28.5744ZM410.809 28.5744L415.47 22.3601L413.398 20.8065H410.809V28.5744ZM412.749 30.0295H420.517V26.1455L417.41 23.8152L412.749 30.0295ZM412.749 31.6924L420.512 31.973L420.517 31.8327V31.6924H412.749ZM412.541 37.4434L404.778 37.1628L404.487 45.2113H412.541V37.4434ZM412.749 37.4434V45.2113H418.505L420.18 39.7051L412.749 37.4434ZM414.966 33.7711L420.934 38.744L420.974 38.696L421.013 38.6474L414.966 33.7711ZM419.332 30.0988L423.223 36.8213L423.251 36.8056L423.277 36.7897L419.332 30.0988ZM427.923 28.9901H435.691V24.1893L431.397 22.0424L427.923 28.9901ZM427.923 41.0465L423.263 47.2608L435.691 56.5822V41.0465H427.923ZM425.498 39.73L422.683 46.9697L422.748 46.9949L422.813 47.0189L425.498 39.73ZM417.738 39.9378L420.04 47.3566L420.156 47.3208L420.27 47.2814L417.738 39.9378ZM414.551 41.3929L410.071 35.0468L406.783 37.368V41.3929H414.551ZM414.551 62.8033H406.783V69.897L413.847 70.5393L414.551 62.8033ZM422.172 63.4962H429.94V56.4025L422.876 55.7602L422.172 63.4962ZM422.172 68V75.7679H429.94V68H422.172ZM398.96 68H391.193V75.7679H398.96V68ZM398.96 63.4269L400.094 71.1116L404.321 70.488L403.187 62.8033L402.053 55.1186L397.827 55.7422L398.96 63.4269ZM403.187 62.8033H410.955V36.7505H403.187H395.419V62.8033H403.187ZM403.187 36.7505L405.454 29.3208L401.366 28.0735L399.099 35.5033L396.832 42.9331L400.92 44.1803L403.187 36.7505ZM399.099 35.5033H406.867V30.0988H399.099H391.331V35.5033H399.099ZM399.099 30.0988L400.12 37.7993L411.622 36.2749L410.601 28.5744L409.581 20.8739L398.078 22.3982L399.099 30.0988ZM410.601 28.5744V36.3423H410.809V28.5744V20.8065H410.601V28.5744ZM410.809 28.5744L406.148 34.7887L408.088 36.2438L412.749 30.0295L417.41 23.8152L415.47 22.3601L410.809 28.5744ZM412.749 30.0295H404.981V31.6924H412.749H420.517V30.0295H412.749ZM412.749 31.6924L404.986 31.4118L404.778 37.1628L412.541 37.4434L420.304 37.724L420.512 31.973L412.749 31.6924ZM412.541 37.4434V45.2113H412.749V37.4434V29.6756H412.541V37.4434ZM412.749 37.4434L420.18 39.7051C420.11 39.9348 420.068 39.9543 420.196 39.7435C420.318 39.5411 420.546 39.2094 420.934 38.744L414.966 33.7711L408.999 28.7982C407.544 30.5442 406.073 32.6986 405.318 35.1817L412.749 37.4434ZM414.966 33.7711L421.013 38.6474C421.51 38.0304 422.209 37.4086 423.223 36.8213L419.332 30.0988L415.44 23.3763C412.943 24.8214 410.732 26.6479 408.92 28.8948L414.966 33.7711ZM419.332 30.0988L423.277 36.7897C423.891 36.4278 424.47 36.273 425.152 36.273V28.5051V20.7372C421.676 20.7372 418.375 21.6449 415.386 23.4078L419.332 30.0988ZM425.152 28.5051V36.273C425.421 36.273 425.489 36.2924 425.406 36.2779C425.334 36.2653 424.965 36.1959 424.449 35.9379L427.923 28.9901L431.397 22.0424C429.184 20.9356 426.858 20.7372 425.152 20.7372V28.5051ZM427.923 28.9901H420.156V41.0465H427.923H435.691V28.9901H427.923ZM427.923 41.0465L432.584 34.8322C431.235 33.8201 429.759 33.0216 428.184 32.4411L425.498 39.73L422.813 47.0189C422.992 47.085 423.134 47.1642 423.263 47.2608L427.923 41.0465ZM425.498 39.73L428.314 32.4903C426.252 31.6887 424.109 31.4771 422.242 31.4771V39.2449V47.0128C422.609 47.0128 422.824 47.0356 422.916 47.0493C423.012 47.0636 422.912 47.0589 422.683 46.9697L425.498 39.73ZM422.242 39.2449V31.4771C419.863 31.4771 417.487 31.8075 415.206 32.5943L417.738 39.9378L420.27 47.2814C420.667 47.1443 421.294 47.0128 422.242 47.0128V39.2449ZM417.738 39.9378L415.435 32.519C413.642 33.0757 411.751 33.8612 410.071 35.0468L414.551 41.3929L419.03 47.739C418.955 47.7922 418.98 47.7628 419.162 47.6797C419.341 47.5981 419.625 47.4855 420.04 47.3566L417.738 39.9378ZM414.551 41.3929H406.783V62.8033H414.551H422.318V41.3929H414.551ZM414.551 62.8033L413.847 70.5393L421.469 71.2322L422.172 63.4962L422.876 55.7602L415.254 55.0673L414.551 62.8033ZM422.172 63.4962H414.405V68H422.172H429.94V63.4962H422.172ZM422.172 68V60.2321H398.96V68V75.7679H422.172V68ZM398.96 68H406.728V63.4269H398.96H391.193V68H398.96ZM435.924 85.0452L434.875 92.7418L434.897 92.7448L434.919 92.7478L435.924 85.0452ZM433.707 84.4908H425.939V89.2916L430.233 91.4386L433.707 84.4908ZM433.707 76.1761L438.222 69.8552L425.939 61.0817V76.1761H433.707ZM435.786 76.7997L437.436 69.2092L437.277 69.1746L437.116 69.1468L435.786 76.7997ZM448.119 68L455.41 70.6804L459.251 60.2321H448.119V68ZM444.1 68L436.862 70.8198L438.79 75.7679H444.1V68ZM431.143 34.7411L438.381 31.9213L436.961 28.2763L433.187 27.247L431.143 34.7411ZM428.094 33.9097H420.327V39.8427L426.051 41.4038L428.094 33.9097ZM428.094 29.4752V21.7073H420.327V29.4752H428.094ZM448.535 29.4752H456.303V21.7073H448.535V29.4752ZM448.535 33.9097L449.847 41.5658L456.303 40.4592V33.9097H448.535ZM443.685 34.7411L442.372 27.085L433.626 28.5843L436.269 37.0549L443.685 34.7411ZM449.436 53.1721L456.882 50.9603L456.867 50.9092L456.851 50.8583L449.436 53.1721ZM451.514 60.1703L444.068 62.3821L452.348 90.2598L459.072 61.9661L451.514 60.1703ZM453.177 53.1721L445.713 51.0196L445.662 51.1968L445.62 51.3763L453.177 53.1721ZM458.512 34.6719L465.976 36.8243L468.354 28.5788L459.913 27.0313L458.512 34.6719ZM454.355 33.9097H446.587V40.3829L452.954 41.5502L454.355 33.9097ZM454.355 29.4752V21.7073H446.587V29.4752H454.355ZM470.014 29.4752H477.782V21.7073H470.014V29.4752ZM470.014 33.9097L471.75 41.4813L477.782 40.0988V33.9097H470.014ZM466.689 34.6719L464.953 27.1003L460.665 28.0831L459.302 32.267L466.689 34.6719ZM459.552 55.6665L452.221 53.0966L452.215 53.1154L452.208 53.1343L459.552 55.6665ZM454.909 68.8315L447.793 65.718L447.691 65.9514L447.604 66.191L454.909 68.8315ZM450.683 78.0469L444.081 73.9538L444.033 74.0306L443.987 74.1085L450.683 78.0469ZM445.763 83.3822L441.603 76.8222L441.547 76.858L441.491 76.8947L445.763 83.3822ZM438.973 85.253V77.4852C438.371 77.4852 437.692 77.4421 436.929 77.3426L435.924 85.0452L434.919 92.7478C436.281 92.9254 437.634 93.0209 438.973 93.0209V85.253ZM435.924 85.0452L436.974 77.3485C436.822 77.3279 436.706 77.3088 436.621 77.2932C436.535 77.2775 436.495 77.2675 436.492 77.2667C436.487 77.2655 436.543 77.2792 436.646 77.3149C436.746 77.3493 436.935 77.4201 437.181 77.5431L433.707 84.4908L430.233 91.4386C431.884 92.2644 433.676 92.5784 434.875 92.7418L435.924 85.0452ZM433.707 84.4908H441.475V76.1761H433.707H425.939V84.4908H433.707ZM433.707 76.1761L429.192 82.4971C430.4 83.3599 431.628 83.763 432.237 83.9455C432.985 84.1698 433.751 84.3304 434.455 84.4527L435.786 76.7997L437.116 69.1468C436.758 69.0843 436.646 69.0486 436.701 69.065C436.734 69.0749 436.88 69.1195 437.098 69.2137C437.296 69.299 437.718 69.4953 438.222 69.8552L433.707 76.1761ZM435.786 76.7997L434.135 84.3903C435.617 84.7124 437.15 84.914 438.696 84.914V77.1462V69.3783C438.486 69.3783 438.079 69.349 437.436 69.2092L435.786 76.7997ZM438.696 77.1462V84.914C442.817 84.914 446.879 83.5444 449.975 80.2417L444.308 74.9289L438.641 69.6162C438.673 69.5818 438.729 69.5307 438.806 69.4781C438.884 69.4253 438.957 69.3891 439.012 69.3674C439.126 69.3221 439.061 69.3783 438.696 69.3783V77.1462ZM444.308 74.9289L449.975 80.2417C452.389 77.6665 454.1 74.2436 455.41 70.6804L448.119 68L440.828 65.3196C439.829 68.0387 438.999 69.235 438.641 69.6162L444.308 74.9289ZM448.119 68V60.2321H444.1V68V75.7679H448.119V68ZM444.1 68L451.338 65.1802L438.381 31.9213L431.143 34.7411L423.905 37.5609L436.862 70.8198L444.1 68ZM431.143 34.7411L433.187 27.247L430.138 26.4155L428.094 33.9097L426.051 41.4038L429.099 42.2353L431.143 34.7411ZM428.094 33.9097H435.862V29.4752H428.094H420.327V33.9097H428.094ZM428.094 29.4752V37.243H448.535V29.4752V21.7073H428.094V29.4752ZM448.535 29.4752H440.767V33.9097H448.535H456.303V29.4752H448.535ZM448.535 33.9097L447.222 26.2535L442.372 27.085L443.685 34.7411L444.997 42.3973L449.847 41.5658L448.535 33.9097ZM443.685 34.7411L436.269 37.0549L442.02 55.4859L449.436 53.1721L456.851 50.8583L451.1 32.4274L443.685 34.7411ZM449.436 53.1721L441.989 55.3839L444.068 62.3821L451.514 60.1703L458.961 57.9585L456.882 50.9603L449.436 53.1721ZM451.514 60.1703L459.072 61.9661L460.735 54.9679L453.177 53.1721L445.62 51.3763L443.957 58.3745L451.514 60.1703ZM453.177 53.1721L460.641 55.3245L465.976 36.8243L458.512 34.6719L451.049 32.5194L445.713 51.0196L453.177 53.1721ZM458.512 34.6719L459.913 27.0313L455.756 26.2692L454.355 33.9097L452.954 41.5502L457.112 42.3124L458.512 34.6719ZM454.355 33.9097H462.123V29.4752H454.355H446.587V33.9097H454.355ZM454.355 29.4752V37.243H470.014V29.4752V21.7073H454.355V29.4752ZM470.014 29.4752H462.247V33.9097H470.014H477.782V29.4752H470.014ZM470.014 33.9097L468.279 26.3381L464.953 27.1003L466.689 34.6719L468.424 42.2434L471.75 41.4813L470.014 33.9097ZM466.689 34.6719L459.302 32.267C457.385 38.1552 455.026 45.0959 452.221 53.0966L459.552 55.6665L466.882 58.2364C469.713 50.162 472.112 43.1063 474.075 37.0767L466.689 34.6719ZM459.552 55.6665L452.208 53.1343C450.824 57.1474 449.752 60.234 448.987 62.4026C448.604 63.4888 448.304 64.3278 448.084 64.9304C447.829 65.6297 447.757 65.7992 447.793 65.718L454.909 68.8315L462.026 71.945C462.514 70.8302 464.214 65.9731 466.895 58.1988L459.552 55.6665ZM454.909 68.8315L447.604 66.191C446.32 69.7427 445.125 72.269 444.081 73.9538L450.683 78.0469L457.285 82.1401C459.104 79.2056 460.727 75.5882 462.215 71.4719L454.909 68.8315ZM450.683 78.0469L443.987 74.1085C443.092 75.631 442.252 76.4106 441.603 76.8222L445.763 83.3822L449.923 89.9422C453.062 87.9518 455.502 85.1745 457.378 81.9854L450.683 78.0469ZM445.763 83.3822L441.491 76.8947C441.06 77.1788 440.338 77.4852 438.973 77.4852V85.253V93.0209C442.874 93.0209 446.679 92.08 450.035 89.8697L445.763 83.3822Z" fill="url(#paint0_linear_54_256)" mask="url(#path-16-outside-1_54_256)"/>
<defs>
<linearGradient id="paint0_linear_54_256" x1="97.0981" y1="43.5" x2="476.17" y2="43.5" gradientUnits="userSpaceOnUse">
<stop offset="0.0817308" stop-color="#FF4400"/>
<stop offset="0.396635" stop-color="#E63D00"/>
<stop offset="0.711538" stop-color="#CC3600"/>
<stop offset="1" stop-color="#992900"/>
</linearGradient>
<clipPath id="clip0_54_256">
<rect width="85.4464" height="86.6116" fill="white" transform="translate(0 0.194336)"/>
</clipPath>
<clipPath id="clip1_54_256">
<rect width="77.6786" height="77.6786" fill="white" transform="translate(3.88403 4.85498)"/>
</clipPath>
</defs>
</svg>
