<svg width="14" height="14" viewBox="0 0 14 14" fill="none" xmlns="http://www.w3.org/2000/svg">
<path d="M2.91667 12.25C3.561 12.25 4.08333 11.7277 4.08333 11.0834C4.08333 10.439 3.561 9.91669 2.91667 9.91669C2.27233 9.91669 1.75 10.439 1.75 11.0834C1.75 11.7277 2.27233 12.25 2.91667 12.25Z" stroke="white" stroke-width="2" stroke-linecap="round" stroke-linejoin="round"/>
<path d="M2.9165 9.16665C2.9165 7.81846 3.45207 6.5255 4.40538 5.57219C5.35869 4.61888 6.65165 4.08331 7.99984 4.08331" stroke="white" stroke-width="1.45238" stroke-linecap="round" stroke-linejoin="round"/>
<g clip-path="url(#clip0_66_111)">
<path d="M8.44434 4.11113C8.44434 3.86384 8.51936 3.62237 8.65948 3.41861C8.7996 3.21485 8.99823 3.05838 9.22914 2.96988C9.46005 2.88138 9.71237 2.865 9.95278 2.92291C10.1932 2.98083 10.4104 3.1103 10.5757 3.29424C10.5873 3.30669 10.6014 3.31661 10.617 3.32339C10.6327 3.33018 10.6495 3.33368 10.6666 3.33368C10.6836 3.33368 10.7005 3.33018 10.7161 3.32339C10.7317 3.31661 10.7458 3.30669 10.7574 3.29424C10.9222 3.1091 11.1395 2.97854 11.3803 2.91993C11.6211 2.86131 11.874 2.87743 12.1054 2.96612C12.3368 3.05482 12.5358 3.21189 12.6757 3.41644C12.8156 3.62098 12.89 3.8633 12.8888 4.11113C12.8888 4.62002 12.5554 5.00002 12.2221 5.33335L11.0017 6.51402C10.9603 6.56157 10.9092 6.59977 10.8519 6.62608C10.7946 6.65239 10.7323 6.6662 10.6693 6.6666C10.6062 6.667 10.5438 6.65398 10.4862 6.6284C10.4285 6.60282 10.377 6.56527 10.335 6.51824L9.111 5.33335C8.77767 5.00002 8.44434 4.62224 8.44434 4.11113Z" stroke="white" stroke-width="1.5" stroke-linecap="round" stroke-linejoin="round"/>
</g>
<defs>
<clipPath id="clip0_66_111">
<rect width="5.33333" height="5.33333" fill="white" transform="translate(8 2)"/>
</clipPath>
</defs>
</svg>
