<svg width="14" height="14" viewBox="0 0 14 14" fill="none" xmlns="http://www.w3.org/2000/svg">
<g clip-path="url(#clip0_66_96)">
<path d="M11.0832 4.08333C11.7275 4.08333 12.2498 3.561 12.2498 2.91667C12.2498 2.27233 11.7275 1.75 11.0832 1.75C10.4388 1.75 9.9165 2.27233 9.9165 2.91667C9.9165 3.561 10.4388 4.08333 11.0832 4.08333Z" stroke="black" stroke-width="2" stroke-linecap="round" stroke-linejoin="round"/>
<path d="M2.91667 12.25C3.561 12.25 4.08333 11.7277 4.08333 11.0834C4.08333 10.439 3.561 9.91669 2.91667 9.91669C2.27233 9.91669 1.75 10.439 1.75 11.0834C1.75 11.7277 2.27233 12.25 2.91667 12.25Z" stroke="black" stroke-width="2" stroke-linecap="round" stroke-linejoin="round"/>
<path d="M2.9165 9.91669C2.9165 8.06017 3.654 6.27969 4.96676 4.96694C6.27951 3.65419 8.05999 2.91669 9.9165 2.91669" stroke="black" stroke-width="2" stroke-linecap="round" stroke-linejoin="round"/>
</g>
<defs>
<clipPath id="clip0_66_96">
<rect width="14" height="14" fill="white"/>
</clipPath>
</defs>
</svg>
