<svg width="159" height="159" viewBox="0 0 159 159" fill="none" xmlns="http://www.w3.org/2000/svg">
<g clip-path="url(#clip0_84_796)">
<path d="M159 133.025V138.261C159 149.715 149.715 159 138.261 159H79.5H20.7391C9.28525 159 0 149.715 0 138.261V133.025C0 127.525 2.18487 122.25 6.07449 118.36L51.8478 72.587V23.6032C47.8206 22.1795 44.9348 18.3406 44.9348 13.8261V10.3696C44.9348 4.64245 49.5772 0 55.3043 0H79.5H103.696C109.423 0 114.065 4.64245 114.065 10.3696V13.8261C114.065 18.3406 111.179 22.1795 107.152 23.6032V72.587L152.926 118.36C156.815 122.25 159 127.525 159 133.025Z" fill="#C9C9C9"/>
<path d="M79.5001 103.695C72.2027 103.695 66.5973 98.1556 67.6294 91.9636L69.1306 82.9562L72.5871 38.0214V31.1084H86.4132V38.0214L89.8697 82.9562L91.3709 91.9636C92.403 98.1556 86.7975 103.695 79.5001 103.695Z" fill="#D6D6D6"/>
<path d="M147.601 135.512V136.175C147.601 141.081 143.624 145.058 138.718 145.058H79.5003H20.2825C15.3766 145.058 11.3999 141.081 11.3999 136.175V135.512C11.3999 133.156 12.3356 130.897 14.0016 129.231L58.6291 84.9612C59.9239 83.6767 61.674 82.9561 63.4976 82.9561H79.5003H95.5026C97.3266 82.9561 99.0763 83.6767 100.371 84.9612L144.999 129.231C146.665 130.897 147.601 133.156 147.601 135.512Z" fill="#FF4400"/>
<path d="M107.152 24.1948V38.0209H51.8481V24.1948H65.6742H93.3264H107.152Z" fill="#BABABA"/>
<path d="M65.6739 72.587L44.9348 159H20.7391C9.28525 159 0 149.715 0 138.261V133.025C0 127.525 2.18487 122.25 6.07449 118.36L51.8478 72.587V23.6032C47.8206 22.1795 44.9348 18.3406 44.9348 13.8261V10.3696C44.9348 4.64245 49.5772 0 55.3043 0H65.6739V72.587Z" fill="#B7B7B7"/>
<path d="M65.6742 38.0209L51.8481 24.1948H65.6742V38.0209Z" fill="#A3A3A3"/>
<path d="M159 133.025V138.261C159 149.715 149.715 159 138.261 159H114.065L93.3262 72.587V0H103.696C109.423 0 114.065 4.64245 114.065 10.3696V13.8261C114.065 18.3406 111.179 22.1795 107.152 23.6032V72.587L152.926 118.36C156.815 122.25 159 127.525 159 133.025Z" fill="#A0A0A0"/>
<path d="M93.3262 24.1948H107.152L93.3262 38.0209V24.1948Z" fill="#919191"/>
<path d="M32.775 110.608H126.226L144.999 129.231C146.665 130.897 147.601 133.157 147.601 135.512V136.176C147.601 141.081 143.624 145.058 138.718 145.058H79.5003H20.2825C15.3766 145.058 11.3999 141.081 11.3999 136.176V135.512C11.3999 133.156 12.3356 130.897 14.0016 129.231L32.775 110.608Z" fill="#FF4400"/>
<path d="M56.5486 110.608L48.2806 145.059H20.2825C15.3766 145.059 11.3999 141.082 11.3999 136.176V135.513C11.3999 133.157 12.3359 130.897 14.0016 129.232L32.7747 110.608H56.5486Z" fill="#FF4400"/>
<path d="M147.601 135.512V136.176C147.601 141.081 143.624 145.058 138.718 145.058H110.72L102.452 110.608H126.226L144.999 129.231C146.665 130.897 147.601 133.156 147.601 135.512Z" fill="#FF4400"/>
<path d="M129.71 114.065H103.281H79.5005H55.7197H29.2908L58.6294 84.9612C59.9242 83.6767 61.6742 82.9561 63.4979 82.9561H69.131L67.6298 91.9634C66.5977 98.1554 72.2031 103.695 79.5005 103.695C86.798 103.695 92.4034 98.1554 91.3713 91.9634L89.8701 82.9561H95.5029C97.3269 82.9561 99.0766 83.6767 100.371 84.9612L129.71 114.065Z" fill="#FF5E24"/>
<path d="M63.1816 82.9716L55.7193 114.065H29.2908L58.6294 84.9612C59.9242 83.6767 61.6742 82.9561 63.4979 82.9561C63.3914 82.9561 63.287 82.9668 63.1816 82.9716Z" fill="#E53D00"/>
<path d="M129.71 114.065H103.281L95.8184 82.9716C95.7129 82.9668 95.6082 82.9561 95.5024 82.9561C97.3264 82.9561 99.0761 83.6767 100.371 84.9612L129.71 114.065Z" fill="#E53D00"/>
</g>
<defs>
<clipPath id="clip0_84_796">
<rect width="159" height="159" fill="white"/>
</clipPath>
</defs>
</svg>
